<svg xmlns="http://www.w3.org/2000/svg" viewBox="0 0 1488.31 284.49"><defs><style>.cls-1{fill:#fff;}</style></defs><g id="Layer_2" data-name="Layer 2"><g id="light"><g id="yearfit"><path id="T" class="cls-1" d="M1488.31,2.41V57.19h-77.1l.21,224.89h-55.73l-.21-224.89H1278.8V2.41Z"/><path id="H" class="cls-1" d="M1019.85,0V128.87h112.29V0l61.52.09v284.4l-61.52-.1V160H1019.85V284.49H958.66V0Z"/><path id="G" class="cls-1" d="M860.55,142.45v28.32q0,25.46-7.22,43.92A105.59,105.59,0,0,1,836,242.8,113,113,0,0,1,810.23,265a129.67,129.67,0,0,1-31.6,14.36,119.94,119.94,0,0,1-35,5.13q-27.07,0-49.88-10.46a114.31,114.31,0,0,1-39.26-29.56Q638,225.36,629,198.88t-9-58.07q0-31.61,9-57.67t25.28-44.53a111.07,111.07,0,0,1,39-28.53Q716.12,0,744.1,0,782,0,810,17.67t43.78,50.9L798.26,87.86a55.74,55.74,0,0,0-21.88-24q-14.22-8.41-32.73-8.42a54.18,54.18,0,0,0-25.95,6.16A57.42,57.42,0,0,0,698.06,79a86.74,86.74,0,0,0-12.64,27.3A131.41,131.41,0,0,0,680.91,142a124.72,124.72,0,0,0,5.64,38.17q5.64,17.65,15.57,29.55,17.16,19.31,46.5,19.29,18,0,29.56-7.39T797.36,197h-46V142.45Z"/><path id="I" class="cls-1" d="M448.94.4V284.09H393.21V.4Z"/><path id="L" class="cls-1" d="M55.73,0V226.63H198v57.83H0V0Z"/></g></g></g></svg>