<svg xmlns="http://www.w3.org/2000/svg" viewBox="0 0 1588.06 16.01"><defs><style>.cls-1{fill:#fff;}</style></defs><g id="Layer_2" data-name="Layer 2"><g id="Undertitle"><g id="undertitle_-_group" data-name="undertitle - group"><path class="cls-1" d="M2.26.44V9.52H8.72v2.26H0V.44Z"/><path class="cls-1" d="M11.13.42a1.09,1.09,0,0,1,.8.35,1.09,1.09,0,0,1,.33.79,1.1,1.1,0,0,1-.33.81,1.13,1.13,0,0,1-.81.33,1.1,1.1,0,0,1-.81-.33A1.11,1.11,0,0,1,10,1.55a1.07,1.07,0,0,1,.33-.79A1.13,1.13,0,0,1,11.13.42ZM10,11.78V3.28h2.16v8.5Z"/><path class="cls-1" d="M21.88,10.9c0,.33,0,.59,0,.8s0,.38,0,.54a4.38,4.38,0,0,1-.08.44c0,.14-.07.29-.12.46a3.39,3.39,0,0,1-.7,1.26,5.07,5.07,0,0,1-1.34,1l-.65.35a4.34,4.34,0,0,1-.64.22l-.82-1.81a5.81,5.81,0,0,0,1-.51,2.77,2.77,0,0,0,.68-.63,2.32,2.32,0,0,0,.38-.81,4.53,4.53,0,0,0,.14-1.05,3.52,3.52,0,0,1-.9.57,2.61,2.61,0,0,1-1,.18,2.57,2.57,0,0,1-1.16-.28,3.27,3.27,0,0,1-1-.77,3.53,3.53,0,0,1-.79-1.38,6.14,6.14,0,0,1-.25-1.89,7.33,7.33,0,0,1,.23-1.88,4.33,4.33,0,0,1,.65-1.42,2.9,2.9,0,0,1,2.42-1.22,3.09,3.09,0,0,1,.83.11,6.14,6.14,0,0,1,1,.42V3.28h2.16ZM19.72,6.09a2.19,2.19,0,0,0-.6-.73,1.35,1.35,0,0,0-.76-.21,1.41,1.41,0,0,0-1.22.64,2.82,2.82,0,0,0-.46,1.71,2.56,2.56,0,0,0,.46,1.59,1.51,1.51,0,0,0,1.24.6,1.45,1.45,0,0,0,1.34-.87Z"/><path class="cls-1" d="M26.3,3.69a5.4,5.4,0,0,1,1.07-.45,3.21,3.21,0,0,1,2.51.3A2.71,2.71,0,0,1,31,4.69a4.16,4.16,0,0,1,.16.4,3.83,3.83,0,0,1,.1.45,3.58,3.58,0,0,1,.05.61c0,.24,0,.54,0,.91v4.72H29.12v-5a1.57,1.57,0,0,0-.37-1.11,1.32,1.32,0,0,0-1-.4,1.39,1.39,0,0,0-1,.41,1.5,1.5,0,0,0-.39,1.09v5H24.14V1.24L26.3.44Z"/><path class="cls-1" d="M36.74,3.28h2.09V5.44H36.74v3A1.57,1.57,0,0,0,37,9.49a1,1,0,0,0,.75.27,1.27,1.27,0,0,0,.52-.11,2.87,2.87,0,0,0,.57-.42l-.31,2.31a3.38,3.38,0,0,1-.75.32A3.2,3.2,0,0,1,37,12a2.78,2.78,0,0,1-1-.16,2.32,2.32,0,0,1-.75-.44,1.94,1.94,0,0,1-.49-.68,2.18,2.18,0,0,1-.18-.89V5.44H33.1V3.28h1.48v-2l2.16-.8Z"/><path class="cls-1" d="M50.56.44l3,4.35L56.46.44h2.77L54.64,7.12v4.66H52.38V7.12L47.79.44Z"/><path class="cls-1" d="M61.18,8.19a2,2,0,0,0,.46,1.3,1.43,1.43,0,0,0,1.12.51,2,2,0,0,0,1.36-.56l1.55,1.17a4.43,4.43,0,0,1-1.37,1,3.58,3.58,0,0,1-1.52.3,4,4,0,0,1-1.59-.3,3.31,3.31,0,0,1-1.2-.89,3.87,3.87,0,0,1-.75-1.39A5.88,5.88,0,0,1,59,7.53,4.41,4.41,0,0,1,60.18,4.2a3.82,3.82,0,0,1,1.24-.79,3.94,3.94,0,0,1,1.5-.3,2.86,2.86,0,0,1,1.68.52,3.59,3.59,0,0,1,1.19,1.49,4.15,4.15,0,0,1,.34,1,6.15,6.15,0,0,1,.1,1.21v.85ZM64,6.48a1.5,1.5,0,0,0-.38-1,1.2,1.2,0,0,0-.93-.4,1.29,1.29,0,0,0-.93.36,1.94,1.94,0,0,0-.48,1.05Z"/><path class="cls-1" d="M72.91,11.78v-.39a4.36,4.36,0,0,1-2.14.56,3,3,0,0,1-1.17-.22,2.78,2.78,0,0,1-.94-.61,2.86,2.86,0,0,1-.62-.93A3,3,0,0,1,67.81,9a2.91,2.91,0,0,1,.24-1.19,2.65,2.65,0,0,1,.67-.94,3.05,3.05,0,0,1,1-.6,4,4,0,0,1,1.33-.21,5.57,5.57,0,0,1,.85.06,6.75,6.75,0,0,1,1,.24V5.83a.75.75,0,0,0-.4-.63,1.86,1.86,0,0,0-1-.24,3.77,3.77,0,0,0-.93.12,8.15,8.15,0,0,0-1.24.45L68.53,4a6.47,6.47,0,0,1,1.53-.7,5.82,5.82,0,0,1,1.59-.22,4.08,4.08,0,0,1,1.62.29,3,3,0,0,1,1.16.92c.12.17.22.33.31.47a2.39,2.39,0,0,1,.2.49,3.32,3.32,0,0,1,.11.58c0,.21,0,.45,0,.74v5.18Zm0-3.62A8,8,0,0,0,72,7.84a2.52,2.52,0,0,0-.67-.09,1.67,1.67,0,0,0-1,.3.93.93,0,0,0-.4.79,1,1,0,0,0,.44.84A1.74,1.74,0,0,0,71.4,10a2.57,2.57,0,0,0,1.51-.53Z"/><path class="cls-1" d="M79.73,3.28v.61a3.32,3.32,0,0,1,.87-.61,2.37,2.37,0,0,1,.9-.17,3.13,3.13,0,0,1,1.63.48l-.66,2.33a2.41,2.41,0,0,0-.58-.41,1.37,1.37,0,0,0-.58-.12,1.47,1.47,0,0,0-.93.33,1.54,1.54,0,0,0-.57.82,2.57,2.57,0,0,0-.06.4,4.64,4.64,0,0,0,0,.59v4.25H77.57V3.28Z"/><path class="cls-1" d="M90.4,5.75A5.32,5.32,0,0,0,87.8,5c-.7,0-1,.22-1,.67a.57.57,0,0,0,.14.42,1.72,1.72,0,0,0,.59.27l.54.16,1,.28a3.93,3.93,0,0,1,1.78,1,2.19,2.19,0,0,1,.65,1.55,2.21,2.21,0,0,1-.71,1.67,2.82,2.82,0,0,1-1.14.69A5.64,5.64,0,0,1,88,12a7,7,0,0,1-1.89-.23A6.15,6.15,0,0,1,84.4,11l.8-1.8a7.65,7.65,0,0,0,1.5.65,5.06,5.06,0,0,0,1.49.23,1.67,1.67,0,0,0,.88-.19.62.62,0,0,0,.31-.55.87.87,0,0,0,0-.3.49.49,0,0,0-.18-.23,1.63,1.63,0,0,0-.38-.2l-.65-.21-1.08-.33-.67-.22A2.35,2.35,0,0,1,86,7.65l-.32-.19a2.32,2.32,0,0,1-.77-.85,2.24,2.24,0,0,1-.27-1.07,2.07,2.07,0,0,1,.24-1,2.21,2.21,0,0,1,.66-.77,3.18,3.18,0,0,1,1-.49,4.6,4.6,0,0,1,1.33-.18,5.61,5.61,0,0,1,1.62.23,9.17,9.17,0,0,1,1.7.76Z"/><path class="cls-1" d="M109.1.44V2.7H106v9.08h-2.26V2.7H100.6V.44Z"/><path class="cls-1" d="M112.86,3.69a5.65,5.65,0,0,1,1.07-.45,3.24,3.24,0,0,1,.94-.13,3.14,3.14,0,0,1,1.57.43,2.71,2.71,0,0,1,1.08,1.15,2.56,2.56,0,0,1,.16.4,3.83,3.83,0,0,1,.1.45,3.58,3.58,0,0,1,0,.61c0,.24,0,.54,0,.91v4.72h-2.16v-5a1.57,1.57,0,0,0-.37-1.11,1.32,1.32,0,0,0-1-.4,1.39,1.39,0,0,0-1,.41,1.5,1.5,0,0,0-.39,1.09v5H110.7V1.24l2.16-.8Z"/><path class="cls-1" d="M122.21,8.19a2,2,0,0,0,.46,1.3,1.41,1.41,0,0,0,1.12.51,2,2,0,0,0,1.36-.56l1.55,1.17a4.43,4.43,0,0,1-1.37,1,3.62,3.62,0,0,1-1.52.3,4,4,0,0,1-1.59-.3,3.31,3.31,0,0,1-1.2-.89,3.87,3.87,0,0,1-.75-1.39A5.88,5.88,0,0,1,120,7.53a4.41,4.41,0,0,1,1.21-3.33,3.82,3.82,0,0,1,1.24-.79,3.94,3.94,0,0,1,1.5-.3,2.86,2.86,0,0,1,1.68.52,3.59,3.59,0,0,1,1.19,1.49,4.15,4.15,0,0,1,.34,1,6.15,6.15,0,0,1,.1,1.21v.85ZM125,6.48a1.5,1.5,0,0,0-.38-1,1.21,1.21,0,0,0-.93-.4,1.29,1.29,0,0,0-.93.36,1.94,1.94,0,0,0-.48,1.05Z"/><path class="cls-1" d="M143.09.44l4.69,11.34H145.3l-1-2.55h-4.52l-1,2.55h-2.48L140.91.44ZM143.32,7,142,3.67,140.67,7Z"/><path class="cls-1" d="M151.64,3.28v.61a3.32,3.32,0,0,1,.87-.61,2.37,2.37,0,0,1,.9-.17,3.13,3.13,0,0,1,1.63.48l-.66,2.33a2.41,2.41,0,0,0-.58-.41,1.37,1.37,0,0,0-.58-.12,1.52,1.52,0,0,0-.94.33,1.58,1.58,0,0,0-.56.82,2.57,2.57,0,0,0-.06.4,4.64,4.64,0,0,0,0,.59v4.25h-2.16V3.28Z"/><path class="cls-1" d="M161.92,6.26a3.39,3.39,0,0,0-.84-1,1.62,1.62,0,0,0-.93-.28,1.39,1.39,0,0,0-.72.19,1.89,1.89,0,0,0-.58.52,2.52,2.52,0,0,0-.38.79,3.42,3.42,0,0,0-.13,1,3.14,3.14,0,0,0,.14,1,2.79,2.79,0,0,0,.4.79,1.88,1.88,0,0,0,.6.53,1.67,1.67,0,0,0,.76.18,1.79,1.79,0,0,0,1-.32,2.73,2.73,0,0,0,.81-.9l1.37,1.39a4,4,0,0,1-1.44,1.3,3.84,3.84,0,0,1-1.84.47,3.74,3.74,0,0,1-1.72-.43A4,4,0,0,1,157,10.37a3.86,3.86,0,0,1-.64-1.24,5.05,5.05,0,0,1-.21-1.53,4.47,4.47,0,0,1,1.18-3.28,4.21,4.21,0,0,1,1.29-.88,3.64,3.64,0,0,1,1.48-.33,3.58,3.58,0,0,1,1.74.45,3.63,3.63,0,0,1,1.33,1.22Z"/><path class="cls-1" d="M167.55,3.69a5.65,5.65,0,0,1,1.07-.45,3.24,3.24,0,0,1,.94-.13,3.14,3.14,0,0,1,1.57.43,2.71,2.71,0,0,1,1.08,1.15,2.56,2.56,0,0,1,.16.4,3.83,3.83,0,0,1,.1.45,3.58,3.58,0,0,1,.05.61c0,.24,0,.54,0,.91v4.72h-2.16v-5A1.57,1.57,0,0,0,170,5.67a1.32,1.32,0,0,0-1-.4,1.39,1.39,0,0,0-1,.41,1.5,1.5,0,0,0-.39,1.09v5h-2.16V1.24l2.16-.8Z"/><path class="cls-1" d="M176.19.42a1.09,1.09,0,0,1,.79.35,1.09,1.09,0,0,1,.33.79,1.1,1.1,0,0,1-.33.81,1.12,1.12,0,0,1-.81.33,1.1,1.1,0,0,1-.81-.33,1.11,1.11,0,0,1-.33-.82,1.07,1.07,0,0,1,.33-.79A1.14,1.14,0,0,1,176.19.42Zm-1.11,11.36V3.28h2.16v8.5Z"/><path class="cls-1" d="M183,3.28h2.09V5.44H183v3a1.57,1.57,0,0,0,.25,1.06,1,1,0,0,0,.75.27,1.24,1.24,0,0,0,.52-.11,2.87,2.87,0,0,0,.57-.42l-.31,2.31a3.52,3.52,0,0,1-.74.32,3.32,3.32,0,0,1-.8.09,2.7,2.7,0,0,1-1-.16,2.27,2.27,0,0,1-.76-.44,2.08,2.08,0,0,1-.49-.68,2.18,2.18,0,0,1-.18-.89V5.44h-1.48V3.28h1.48v-2L183,.44Z"/><path class="cls-1" d="M189.16,8.19a1.94,1.94,0,0,0,.46,1.3,1.4,1.4,0,0,0,1.12.51,2,2,0,0,0,1.36-.56l1.54,1.17a4.4,4.4,0,0,1-1.36,1,3.66,3.66,0,0,1-1.53.3,4.06,4.06,0,0,1-1.59-.3,3.19,3.19,0,0,1-1.19-.89,4,4,0,0,1-.76-1.39A5.89,5.89,0,0,1,187,7.53a4.44,4.44,0,0,1,1.2-3.33,4.08,4.08,0,0,1,2.74-1.09,2.86,2.86,0,0,1,1.68.52,3.51,3.51,0,0,1,1.19,1.49,3.76,3.76,0,0,1,.34,1,6.09,6.09,0,0,1,.11,1.21v.85Zm2.78-1.71a1.45,1.45,0,0,0-.38-1,1.18,1.18,0,0,0-.92-.4,1.26,1.26,0,0,0-.93.36,1.88,1.88,0,0,0-.49,1.05Z"/><path class="cls-1" d="M201.63,6.26a3.39,3.39,0,0,0-.84-1,1.59,1.59,0,0,0-.92-.28,1.42,1.42,0,0,0-.73.19,1.76,1.76,0,0,0-.57.52,2.34,2.34,0,0,0-.39.79,3.42,3.42,0,0,0-.13,1,3.45,3.45,0,0,0,.14,1,2.79,2.79,0,0,0,.4.79,1.88,1.88,0,0,0,.6.53A1.67,1.67,0,0,0,200,10a1.79,1.79,0,0,0,1-.32,2.73,2.73,0,0,0,.81-.9l1.37,1.39a4,4,0,0,1-1.44,1.3,3.84,3.84,0,0,1-1.84.47,3.77,3.77,0,0,1-1.72-.43,4,4,0,0,1-1.4-1.15,3.88,3.88,0,0,1-.65-1.24,5.07,5.07,0,0,1-.2-1.53,4.51,4.51,0,0,1,1.17-3.28,4.21,4.21,0,0,1,1.29-.88,3.64,3.64,0,0,1,1.48-.33,3.58,3.58,0,0,1,1.74.45,3.75,3.75,0,0,1,1.34,1.22Z"/><path class="cls-1" d="M208,3.28h2.09V5.44H208v3a1.56,1.56,0,0,0,.26,1.06,1,1,0,0,0,.75.27,1.19,1.19,0,0,0,.51-.11,2.39,2.39,0,0,0,.57-.42l-.3,2.31a3.38,3.38,0,0,1-.75.32,3.26,3.26,0,0,1-.8.09,2.78,2.78,0,0,1-1-.16,2.32,2.32,0,0,1-.75-.44,2.1,2.1,0,0,1-.5-.68,2.18,2.18,0,0,1-.18-.89V5.44h-1.47V3.28h1.47v-2L208,.44Z"/><path class="cls-1" d="M217.27,11.37a4.75,4.75,0,0,1-1.07.45,3.51,3.51,0,0,1-1,.13,3.13,3.13,0,0,1-1.61-.43,2.74,2.74,0,0,1-1.09-1.15,2.56,2.56,0,0,1-.16-.4,3.71,3.71,0,0,1-.11-.45c0-.17,0-.37,0-.61s0-.54,0-.9V3.28h2.16v5a1.56,1.56,0,0,0,.38,1.11,1.4,1.4,0,0,0,1.08.4,1.43,1.43,0,0,0,1.08-.4,1.45,1.45,0,0,0,.4-1.09v-5h2.16v8.5h-2.16Z"/><path class="cls-1" d="M224.29,3.28v.61a3.19,3.19,0,0,1,.88-.61,2.31,2.31,0,0,1,.89-.17,3.11,3.11,0,0,1,1.63.48L227,5.92a2.23,2.23,0,0,0-.58-.41,1.32,1.32,0,0,0-.57-.12,1.5,1.5,0,0,0-.94.33,1.58,1.58,0,0,0-.56.82,2.57,2.57,0,0,0-.07.4c0,.13,0,.33,0,.59v4.25h-2.15V3.28Z"/><path class="cls-1" d="M233.92,11.78v-.39a4.39,4.39,0,0,1-2.15.56,3,3,0,0,1-1.17-.22,2.79,2.79,0,0,1-1.55-1.54A2.8,2.8,0,0,1,228.82,9a3.08,3.08,0,0,1,.23-1.19,2.67,2.67,0,0,1,.68-.94,3,3,0,0,1,1-.6,4.09,4.09,0,0,1,1.34-.21,5.67,5.67,0,0,1,.85.06,7.09,7.09,0,0,1,1,.24V5.83a.77.77,0,0,0-.4-.63,1.91,1.91,0,0,0-1-.24,3.85,3.85,0,0,0-.94.12,8.55,8.55,0,0,0-1.24.45l-.8-1.5a6.47,6.47,0,0,1,1.53-.7,5.89,5.89,0,0,1,1.6-.22,4.06,4.06,0,0,1,1.61.29,2.91,2.91,0,0,1,1.16.92c.12.17.23.33.31.47a2,2,0,0,1,.21.49,3.33,3.33,0,0,1,.1.58c0,.21,0,.45,0,.74v5.18Zm0-3.62a7.47,7.47,0,0,0-.94-.32,2.44,2.44,0,0,0-.66-.09,1.72,1.72,0,0,0-1,.3,1,1,0,0,0-.4.79,1,1,0,0,0,.45.84,1.69,1.69,0,0,0,1.08.35,2.6,2.6,0,0,0,1.52-.53Z"/><path class="cls-1" d="M240.73,11.78h-2.16V1.24l2.16-.8Z"/><path class="cls-1" d="M253.53.44V9.52H260v2.26h-8.72V.44Z"/><path class="cls-1" d="M263.12,8.19a2,2,0,0,0,.46,1.3,1.43,1.43,0,0,0,1.12.51,2,2,0,0,0,1.36-.56l1.55,1.17a4.43,4.43,0,0,1-1.37,1,3.58,3.58,0,0,1-1.52.3,4,4,0,0,1-1.59-.3,3.31,3.31,0,0,1-1.2-.89,3.87,3.87,0,0,1-.75-1.39,5.88,5.88,0,0,1-.27-1.84,4.41,4.41,0,0,1,1.21-3.33,3.82,3.82,0,0,1,1.24-.79,3.94,3.94,0,0,1,1.5-.3,2.86,2.86,0,0,1,1.68.52,3.59,3.59,0,0,1,1.19,1.49,4.15,4.15,0,0,1,.34,1,6.15,6.15,0,0,1,.1,1.21v.85Zm2.79-1.71a1.5,1.5,0,0,0-.38-1,1.2,1.2,0,0,0-.93-.4,1.29,1.29,0,0,0-.93.36,1.94,1.94,0,0,0-.48,1.05Z"/><path class="cls-1" d="M274.85,11.78v-.39a4.36,4.36,0,0,1-2.14.56,3,3,0,0,1-1.17-.22,2.78,2.78,0,0,1-.94-.61,2.86,2.86,0,0,1-.62-.93A3,3,0,0,1,269.75,9,2.91,2.91,0,0,1,270,7.84a2.65,2.65,0,0,1,.67-.94,3.05,3.05,0,0,1,1-.6A4,4,0,0,1,273,6.09a5.57,5.57,0,0,1,.85.06,6.75,6.75,0,0,1,1,.24V5.83a.75.75,0,0,0-.4-.63,1.86,1.86,0,0,0-1-.24,3.77,3.77,0,0,0-.93.12,8.15,8.15,0,0,0-1.24.45l-.8-1.5a6.47,6.47,0,0,1,1.53-.7,5.82,5.82,0,0,1,1.59-.22,4.08,4.08,0,0,1,1.62.29,3,3,0,0,1,1.16.92c.12.17.22.33.31.47a2.39,2.39,0,0,1,.2.49,3.32,3.32,0,0,1,.11.58c0,.21,0,.45,0,.74v5.18Zm0-3.62a8,8,0,0,0-.93-.32,2.52,2.52,0,0,0-.67-.09,1.67,1.67,0,0,0-1,.3.93.93,0,0,0-.4.79,1,1,0,0,0,.44.84,1.74,1.74,0,0,0,1.09.35,2.57,2.57,0,0,0,1.51-.53Z"/><path class="cls-1" d="M286.43,10.9c0,.33,0,.59,0,.8s0,.38,0,.54a4.38,4.38,0,0,1-.08.44c0,.14-.07.29-.12.46a3.39,3.39,0,0,1-.7,1.26,5.07,5.07,0,0,1-1.34,1l-.65.35a4.34,4.34,0,0,1-.64.22L282,14.2a5.81,5.81,0,0,0,1-.51,2.77,2.77,0,0,0,.68-.63,2.32,2.32,0,0,0,.38-.81,4.53,4.53,0,0,0,.14-1.05,3.52,3.52,0,0,1-.9.57,2.61,2.61,0,0,1-1,.18,2.57,2.57,0,0,1-1.16-.28,3.27,3.27,0,0,1-1-.77,3.53,3.53,0,0,1-.79-1.38,6.14,6.14,0,0,1-.25-1.89,7.33,7.33,0,0,1,.23-1.88,4.33,4.33,0,0,1,.65-1.42,2.9,2.9,0,0,1,2.42-1.22,3.09,3.09,0,0,1,.83.11,6.14,6.14,0,0,1,1,.42V3.28h2.16Zm-2.16-4.81a2.19,2.19,0,0,0-.6-.73,1.35,1.35,0,0,0-.76-.21,1.41,1.41,0,0,0-1.22.64,2.82,2.82,0,0,0-.46,1.71,2.56,2.56,0,0,0,.46,1.59,1.51,1.51,0,0,0,1.24.6,1.45,1.45,0,0,0,1.34-.87Z"/><path class="cls-1" d="M293.57,11.37a5.16,5.16,0,0,1-1.07.45,3.58,3.58,0,0,1-1,.13,3.1,3.1,0,0,1-1.6-.43,2.76,2.76,0,0,1-1.1-1.15,2.56,2.56,0,0,1-.16-.4,3.83,3.83,0,0,1-.1-.45,3.49,3.49,0,0,1,0-.61c0-.24,0-.54,0-.9V3.28h2.16v5A1.55,1.55,0,0,0,291,9.39a1.41,1.41,0,0,0,1.09.4,1.38,1.38,0,0,0,1.48-1.49v-5h2.16v8.5h-2.16Z"/><path class="cls-1" d="M300.3,8.19a1.94,1.94,0,0,0,.46,1.3,1.41,1.41,0,0,0,1.12.51,2,2,0,0,0,1.36-.56l1.55,1.17a4.43,4.43,0,0,1-1.37,1,3.62,3.62,0,0,1-1.52.3,4,4,0,0,1-1.59-.3,3.31,3.31,0,0,1-1.2-.89,4,4,0,0,1-.76-1.39,6.2,6.2,0,0,1-.26-1.84A4.41,4.41,0,0,1,299.3,4.2a3.82,3.82,0,0,1,1.24-.79,3.89,3.89,0,0,1,1.49-.3,2.87,2.87,0,0,1,1.69.52,3.59,3.59,0,0,1,1.19,1.49,4.15,4.15,0,0,1,.34,1,6.15,6.15,0,0,1,.1,1.21v.85Zm2.79-1.71a1.5,1.5,0,0,0-.38-1,1.21,1.21,0,0,0-.93-.4,1.29,1.29,0,0,0-.93.36,1.94,1.94,0,0,0-.48,1.05Z"/><path class="cls-1" d="M318.76,3.11a3.17,3.17,0,0,1,1.46.34,3.88,3.88,0,0,1,1.17.94,4.78,4.78,0,0,1,.79,1.42,5.09,5.09,0,0,1,.29,1.72,5.16,5.16,0,0,1-.29,1.74,4.6,4.6,0,0,1-.79,1.41,3.84,3.84,0,0,1-1.19.93,3.37,3.37,0,0,1-2.95,0,3.8,3.8,0,0,1-1.18-.93,4.4,4.4,0,0,1-.79-1.41A4.86,4.86,0,0,1,315,7.55a5,5,0,0,1,.29-1.76,4.27,4.27,0,0,1,.8-1.4,3.84,3.84,0,0,1,1.19-.94A3.29,3.29,0,0,1,318.76,3.11Zm0,2.08a1.35,1.35,0,0,0-1.16.64,3,3,0,0,0-.44,1.68,3.09,3.09,0,0,0,.43,1.71,1.33,1.33,0,0,0,1.15.66,1.29,1.29,0,0,0,1.12-.67,3.08,3.08,0,0,0,.43-1.68,3.38,3.38,0,0,0-.12-.93,2.8,2.8,0,0,0-.32-.74,1.67,1.67,0,0,0-.49-.5A1.16,1.16,0,0,0,318.78,5.19Z"/><path class="cls-1" d="M329.1,5.44h-1.43v6.34h-2.16V5.44h-1.12V3.28h1.12V2a1.56,1.56,0,0,1,.08-.53,1.26,1.26,0,0,1,.26-.39,2.36,2.36,0,0,1,.92-.51,4.47,4.47,0,0,1,1.29-.19,3.77,3.77,0,0,1,.51,0,4,4,0,0,1,.53.13V2.18a1.82,1.82,0,0,0-.31-.07l-.27,0a.74.74,0,0,0-.85.83v.36h1.43Z"/><path class="cls-1" d="M341.12.44l5,7v-7h2.26V11.78h-2.06l-5.2-7.48v7.48h-2.26V.44Z"/><path class="cls-1" d="M353,8.19a1.94,1.94,0,0,0,.46,1.3,1.41,1.41,0,0,0,1.12.51,2,2,0,0,0,1.36-.56l1.55,1.17a4.43,4.43,0,0,1-1.37,1,3.62,3.62,0,0,1-1.52.3,4,4,0,0,1-1.59-.3,3.31,3.31,0,0,1-1.2-.89,4,4,0,0,1-.76-1.39,6.2,6.2,0,0,1-.26-1.84A4.41,4.41,0,0,1,352,4.2a3.82,3.82,0,0,1,1.24-.79,3.89,3.89,0,0,1,1.49-.3,2.87,2.87,0,0,1,1.69.52,3.59,3.59,0,0,1,1.19,1.49,4.15,4.15,0,0,1,.34,1,6.15,6.15,0,0,1,.1,1.21v.85Zm2.79-1.71a1.5,1.5,0,0,0-.38-1,1.21,1.21,0,0,0-.93-.4,1.27,1.27,0,0,0-.93.36,1.94,1.94,0,0,0-.48,1.05Z"/><path class="cls-1" d="M361.43,3.28l1.17,4.05,1.06-4.05h2.28L367,7.33l1.17-4.05h2.25L368,11.78h-2L364.8,7.57l-1.14,4.21h-2l-2.43-8.5Z"/><path class="cls-1" d="M381.68.44l3,4.35L387.58.44h2.77l-4.59,6.68v4.66H383.5V7.12L378.91.44Z"/><path class="cls-1" d="M393.87,3.11a3.13,3.13,0,0,1,1.45.34,3.65,3.65,0,0,1,1.17.94,4.8,4.8,0,0,1,.8,1.42,5.09,5.09,0,0,1,.28,1.72,5.16,5.16,0,0,1-.28,1.74,4.62,4.62,0,0,1-.8,1.41,3.73,3.73,0,0,1-1.19.93,3.18,3.18,0,0,1-1.47.34,3.25,3.25,0,0,1-1.48-.34,3.92,3.92,0,0,1-1.18-.93,4.82,4.82,0,0,1-.79-1.41,5.09,5.09,0,0,1-.29-1.72,5.24,5.24,0,0,1,.29-1.76,4.46,4.46,0,0,1,.8-1.4,3.77,3.77,0,0,1,1.2-.94A3.29,3.29,0,0,1,393.87,3.11Zm0,2.08a1.34,1.34,0,0,0-1.16.64,2.87,2.87,0,0,0-.44,1.68,3,3,0,0,0,.43,1.71,1.32,1.32,0,0,0,1.15.66A1.28,1.28,0,0,0,395,9.21a3,3,0,0,0,.44-1.68,3.38,3.38,0,0,0-.12-.93,2.52,2.52,0,0,0-.33-.74,1.54,1.54,0,0,0-.48-.5A1.19,1.19,0,0,0,393.89,5.19Z"/><path class="cls-1" d="M402.11,3.28v.61a3.19,3.19,0,0,1,.88-.61,2.28,2.28,0,0,1,.89-.17,3.11,3.11,0,0,1,1.63.48l-.66,2.33a2.41,2.41,0,0,0-.58-.41,1.34,1.34,0,0,0-.58-.12,1.47,1.47,0,0,0-.93.33,1.58,1.58,0,0,0-.56.82,1.76,1.76,0,0,0-.07.4c0,.13,0,.33,0,.59v4.25H400V3.28Z"/><path class="cls-1" d="M409.41,6l2.15-2.76h2.72L412,6.12l2.26,5.66H412L410.49,8,409.41,9.4v2.38h-2.16V1.24l2.16-.8Z"/><path class="cls-1" d="M416.48,3h-1.29l.54-2.6h1.72Z"/><path class="cls-1" d="M425.08,5.75a5.35,5.35,0,0,0-2.6-.72c-.7,0-1.06.22-1.06.67a.54.54,0,0,0,.15.42,1.63,1.63,0,0,0,.59.27,5.52,5.52,0,0,0,.54.16l1,.28a3.89,3.89,0,0,1,1.77,1,2.16,2.16,0,0,1,.66,1.55,2.19,2.19,0,0,1-.72,1.67,2.82,2.82,0,0,1-1.14.69,5.64,5.64,0,0,1-1.63.19,7,7,0,0,1-1.89-.23,6.09,6.09,0,0,1-1.66-.74l.8-1.8a7.31,7.31,0,0,0,1.49.65,5.07,5.07,0,0,0,1.5.23,1.69,1.69,0,0,0,.88-.19.64.64,0,0,0,.31-.55.87.87,0,0,0,0-.3.49.49,0,0,0-.18-.23,1.87,1.87,0,0,0-.38-.2l-.66-.21-1.08-.33-.67-.22a2.35,2.35,0,0,1-.41-.18l-.32-.19a2.41,2.41,0,0,1-.77-.85,2.24,2.24,0,0,1-.27-1.07,2.07,2.07,0,0,1,.24-1,2.32,2.32,0,0,1,.66-.77,3.39,3.39,0,0,1,1-.49,4.67,4.67,0,0,1,1.34-.18,5.59,5.59,0,0,1,1.61.23,8.89,8.89,0,0,1,1.7.76Z"/><path class="cls-1" d="M439.8.44V11.78h-2.26V3.64H436V1.7a3.24,3.24,0,0,0,1.1-.42,2.62,2.62,0,0,0,.75-.84Z"/><path class="cls-1" d="M443.47,9.4a3.35,3.35,0,0,0,.45.07l.35,0a4.62,4.62,0,0,0,1.41-.23A5.45,5.45,0,0,0,447,8.64a4,4,0,0,0,.83-.72,6.08,6.08,0,0,0,.67-1,9.17,9.17,0,0,1-1,.24,7.39,7.39,0,0,1-.86,0,6.6,6.6,0,0,1-2.18-.35,4.46,4.46,0,0,1-1.68-1,2.71,2.71,0,0,1-.6-.94,3.43,3.43,0,0,1-.22-1.18,3.13,3.13,0,0,1,.33-1.45,3,3,0,0,1,.91-1.09,4,4,0,0,1,1.42-.7,6.62,6.62,0,0,1,1.9-.25,6.17,6.17,0,0,1,2.41.43,3.39,3.39,0,0,1,1.58,1.22A4.11,4.11,0,0,1,451,3.15a7.25,7.25,0,0,1,0,3.54,6.44,6.44,0,0,1-.68,1.67,6.76,6.76,0,0,1-1.11,1.41,7.19,7.19,0,0,1-1.47,1.09,7.55,7.55,0,0,1-1.72.69,6.59,6.59,0,0,1-1.78.25h-.34l-.43,0Zm3.06-6.88a5.64,5.64,0,0,0-1.08.1,2.57,2.57,0,0,0-.84.29,1,1,0,0,0-.3.33.9.9,0,0,0,0,.9,1,1,0,0,0,.3.33,3,3,0,0,0,.84.28,4.74,4.74,0,0,0,1.07.11,5.49,5.49,0,0,0,1.08-.1,2.55,2.55,0,0,0,.85-.29.92.92,0,0,0,.31-1.23.9.9,0,0,0-.31-.33,2.41,2.41,0,0,0-.84-.29A5.49,5.49,0,0,0,446.53,2.52Z"/><path class="cls-1" d="M454.57,9.4a3.61,3.61,0,0,0,.45.07l.35,0a4.62,4.62,0,0,0,1.41-.23,5.45,5.45,0,0,0,1.31-.62,4,4,0,0,0,.83-.72,6.08,6.08,0,0,0,.67-1,9.17,9.17,0,0,1-1,.24,7.39,7.39,0,0,1-.86,0,6.6,6.6,0,0,1-2.18-.35,4.46,4.46,0,0,1-1.68-1,2.56,2.56,0,0,1-.59-.94A3.22,3.22,0,0,1,453,3.71a3.13,3.13,0,0,1,.33-1.45,3,3,0,0,1,.91-1.09,4,4,0,0,1,1.43-.7A6.5,6.5,0,0,1,457.6.22,6.17,6.17,0,0,1,460,.65a3.42,3.42,0,0,1,1.59,1.22,4.36,4.36,0,0,1,.54,1.28,6.66,6.66,0,0,1,.2,1.7,7.54,7.54,0,0,1-.23,1.84,6.83,6.83,0,0,1-.69,1.67,6.76,6.76,0,0,1-1.11,1.41,6.68,6.68,0,0,1-1.47,1.09,7.55,7.55,0,0,1-1.72.69,6.59,6.59,0,0,1-1.78.25H455l-.43,0Zm3.06-6.88a5.46,5.46,0,0,0-1.07.1,2.55,2.55,0,0,0-.85.29,1,1,0,0,0-.3.33.9.9,0,0,0,0,.9,1,1,0,0,0,.3.33,3.16,3.16,0,0,0,.84.28,4.74,4.74,0,0,0,1.07.11,5.67,5.67,0,0,0,1.09-.1,2.72,2.72,0,0,0,.85-.29,1,1,0,0,0,.3-.33.9.9,0,0,0,0-.9,1,1,0,0,0-.3-.33,2.55,2.55,0,0,0-.85-.29A5.49,5.49,0,0,0,457.63,2.52Z"/><path class="cls-1" d="M465.68,9.4a3.24,3.24,0,0,0,.44.07l.35,0a4.74,4.74,0,0,0,1.42-.23,5.57,5.57,0,0,0,1.3-.62,4,4,0,0,0,.83-.72,6.08,6.08,0,0,0,.67-1,9.17,9.17,0,0,1-1,.24,7.39,7.39,0,0,1-.86,0,6.64,6.64,0,0,1-2.18-.35,4.46,4.46,0,0,1-1.68-1,2.56,2.56,0,0,1-.59-.94,3.21,3.21,0,0,1-.22-1.18,3.12,3.12,0,0,1,.32-1.45,3,3,0,0,1,.91-1.09,4.07,4.07,0,0,1,1.43-.7A6.5,6.5,0,0,1,468.7.22a6.26,6.26,0,0,1,2.42.43,3.45,3.45,0,0,1,1.58,1.22,4.36,4.36,0,0,1,.54,1.28,6.66,6.66,0,0,1,.2,1.7,7.08,7.08,0,0,1-.23,1.84,6.83,6.83,0,0,1-.69,1.67,6.76,6.76,0,0,1-1.11,1.41,6.68,6.68,0,0,1-1.47,1.09,7.55,7.55,0,0,1-1.72.69,6.59,6.59,0,0,1-1.78.25h-.34l-.42,0Zm3.06-6.88a5.49,5.49,0,0,0-1.08.1,2.55,2.55,0,0,0-.85.29,1,1,0,0,0-.3.33.9.9,0,0,0,0,.9,1,1,0,0,0,.3.33,3.16,3.16,0,0,0,.84.28,4.8,4.8,0,0,0,1.07.11,5.6,5.6,0,0,0,1.09-.1,2.72,2.72,0,0,0,.85-.29,1,1,0,0,0,.3-.33.9.9,0,0,0,0-.9,1,1,0,0,0-.3-.33,2.55,2.55,0,0,0-.85-.29A5.46,5.46,0,0,0,468.74,2.52Z"/><path class="cls-1" d="M489,.44l.61,0a3,3,0,0,1,.46.06,2.29,2.29,0,0,1,.37.12l.4.19A3.16,3.16,0,0,1,492,2a3.11,3.11,0,0,1,.43,1.61,2.7,2.7,0,0,1-.18,1,4.69,4.69,0,0,1-.62,1,3.33,3.33,0,0,1,1.17,2.6,3.56,3.56,0,0,1-.31,1.47,3.42,3.42,0,0,1-.89,1.2,3.19,3.19,0,0,1-1.13.66,4.9,4.9,0,0,1-1.47.19h-5.38V.44Zm-.13,4.15c.87,0,1.31-.33,1.31-1a.78.78,0,0,0-.29-.69,2.07,2.07,0,0,0-1.07-.2h-2.89V4.59Zm0,4.93a3.17,3.17,0,0,0,.8-.08,1.31,1.31,0,0,0,.51-.33,1.28,1.28,0,0,0,0-1.8,1.36,1.36,0,0,0-.52-.36,2.24,2.24,0,0,0-.77-.1h-3V9.52Z"/><path class="cls-1" d="M497,8.19a2,2,0,0,0,.46,1.3,1.43,1.43,0,0,0,1.12.51A2,2,0,0,0,500,9.44l1.55,1.17a4.32,4.32,0,0,1-1.37,1,3.58,3.58,0,0,1-1.52.3,4,4,0,0,1-1.59-.3,3.31,3.31,0,0,1-1.2-.89,3.87,3.87,0,0,1-.75-1.39,5.88,5.88,0,0,1-.27-1.84A4.44,4.44,0,0,1,496,4.2a3.82,3.82,0,0,1,1.24-.79,3.94,3.94,0,0,1,1.5-.3,2.86,2.86,0,0,1,1.68.52,3.51,3.51,0,0,1,1.19,1.49,4.15,4.15,0,0,1,.34,1,6.15,6.15,0,0,1,.1,1.21v.85Zm2.79-1.71a1.5,1.5,0,0,0-.38-1,1.18,1.18,0,0,0-.93-.4,1.25,1.25,0,0,0-.92.36,1.88,1.88,0,0,0-.49,1.05Z"/><path class="cls-1" d="M508.75,11.78v-.39a4.36,4.36,0,0,1-2.14.56,3,3,0,0,1-1.17-.22,2.88,2.88,0,0,1-.94-.61,3,3,0,0,1-.62-.93A3,3,0,0,1,503.65,9a2.91,2.91,0,0,1,.24-1.19,2.65,2.65,0,0,1,.67-.94,3.05,3.05,0,0,1,1-.6,4,4,0,0,1,1.33-.21,5.57,5.57,0,0,1,.85.06,6.75,6.75,0,0,1,1,.24V5.83a.75.75,0,0,0-.4-.63,1.86,1.86,0,0,0-1-.24,3.77,3.77,0,0,0-.93.12,8.55,8.55,0,0,0-1.24.45l-.8-1.5a6.47,6.47,0,0,1,1.53-.7,5.89,5.89,0,0,1,1.6-.22,4.06,4.06,0,0,1,1.61.29,3,3,0,0,1,1.16.92c.12.17.23.33.31.47a2.41,2.41,0,0,1,.21.49,3.33,3.33,0,0,1,.1.58c0,.21,0,.45,0,.74v5.18Zm0-3.62a7.44,7.44,0,0,0-.93-.32,2.5,2.5,0,0,0-.66-.09,1.7,1.7,0,0,0-1.05.3.93.93,0,0,0-.4.79,1,1,0,0,0,.44.84,1.74,1.74,0,0,0,1.09.35,2.55,2.55,0,0,0,1.51-.53Z"/><path class="cls-1" d="M518.29,11.37a5,5,0,0,1-1.07.45,3.56,3.56,0,0,1-1,.13,3.11,3.11,0,0,1-1.61-.43,2.76,2.76,0,0,1-1.1-1.15,4.16,4.16,0,0,1-.16-.4,3.83,3.83,0,0,1-.1-.45,3.49,3.49,0,0,1,0-.61c0-.24,0-.54,0-.9V3.28h2.16v5a1.55,1.55,0,0,0,.37,1.11,1.42,1.42,0,0,0,1.09.4,1.38,1.38,0,0,0,1.48-1.49v-5h2.16v8.5h-2.16Z"/><path class="cls-1" d="M525.38,3.28l1.12,1.77,1.11-1.77h2.56L527.66,7l3.19,4.79h-2.6L526.5,8.92l-1.75,2.86h-2.62L525.33,7l-2.5-3.71Z"/><path class="cls-1" d="M546.34.44,551,11.78h-2.48l-1-2.55H543l-1,2.55h-2.48L544.16.44ZM546.58,7l-1.33-3.3L543.93,7Z"/><path class="cls-1" d="M554.89,3.28v.61a3.19,3.19,0,0,1,.88-.61,2.28,2.28,0,0,1,.89-.17,3.13,3.13,0,0,1,1.63.48l-.66,2.33a2.41,2.41,0,0,0-.58-.41,1.34,1.34,0,0,0-.58-.12,1.47,1.47,0,0,0-.93.33,1.52,1.52,0,0,0-.56.82,1.76,1.76,0,0,0-.07.4c0,.13,0,.33,0,.59v4.25h-2.16V3.28Z"/><path class="cls-1" d="M563.32,3.28h2.09V5.44h-2.09v3a1.56,1.56,0,0,0,.26,1.06,1,1,0,0,0,.75.27,1.19,1.19,0,0,0,.51-.11,2.39,2.39,0,0,0,.57-.42l-.3,2.31a3.38,3.38,0,0,1-.75.32,3.26,3.26,0,0,1-.8.09,2.78,2.78,0,0,1-1-.16,2.22,2.22,0,0,1-.75-.44,2.1,2.1,0,0,1-.5-.68,2.18,2.18,0,0,1-.18-.89V5.44h-1.47V3.28h1.47v-2l2.16-.8Z"/><path class="cls-1" d="M573.34,5.75A5.39,5.39,0,0,0,570.73,5c-.7,0-1.05.22-1.05.67a.54.54,0,0,0,.15.42,1.56,1.56,0,0,0,.58.27l.55.16,1,.28a3.93,3.93,0,0,1,1.78,1,2.19,2.19,0,0,1,.65,1.55,2.21,2.21,0,0,1-.71,1.67,2.82,2.82,0,0,1-1.14.69,5.64,5.64,0,0,1-1.63.19,7,7,0,0,1-1.89-.23,6.15,6.15,0,0,1-1.67-.74l.8-1.8a7.65,7.65,0,0,0,1.5.65,5.07,5.07,0,0,0,1.5.23,1.65,1.65,0,0,0,.87-.19.63.63,0,0,0,.32-.55.85.85,0,0,0-.05-.3.39.39,0,0,0-.18-.23,1.63,1.63,0,0,0-.38-.2l-.65-.21L570,8.05l-.67-.22a2.35,2.35,0,0,1-.41-.18l-.32-.19a2.32,2.32,0,0,1-.77-.85,2.24,2.24,0,0,1-.27-1.07,2.07,2.07,0,0,1,.24-1,2.32,2.32,0,0,1,.66-.77,3.28,3.28,0,0,1,1-.49,4.65,4.65,0,0,1,1.33-.18,5.61,5.61,0,0,1,1.62.23,9.17,9.17,0,0,1,1.7.76Z"/><path class="cls-1" d="M590,.44l.61,0a3,3,0,0,1,.46.06,2.29,2.29,0,0,1,.37.12l.4.19A3.16,3.16,0,0,1,593.05,2a3.11,3.11,0,0,1,.43,1.61,2.7,2.7,0,0,1-.18,1,4.69,4.69,0,0,1-.62,1,3.33,3.33,0,0,1,1.17,2.6,3.56,3.56,0,0,1-.31,1.47,3.42,3.42,0,0,1-.89,1.2,3.19,3.19,0,0,1-1.13.66,4.86,4.86,0,0,1-1.47.19h-5.38V.44Zm-.13,4.15c.87,0,1.31-.33,1.31-1a.78.78,0,0,0-.29-.69,2.07,2.07,0,0,0-1.07-.2h-2.89V4.59Zm0,4.93a3.17,3.17,0,0,0,.8-.08,1.31,1.31,0,0,0,.51-.33,1.24,1.24,0,0,0,.35-.86,1.28,1.28,0,0,0-.39-.94,1.36,1.36,0,0,0-.52-.36,2.24,2.24,0,0,0-.77-.1h-3V9.52Z"/><path class="cls-1" d="M600.82,11.78v-.39a4.33,4.33,0,0,1-2.14.56A2.84,2.84,0,0,1,596,10.19,3,3,0,0,1,595.72,9,2.91,2.91,0,0,1,596,7.84a2.78,2.78,0,0,1,.67-.94,3.05,3.05,0,0,1,1-.6A4.05,4.05,0,0,1,599,6.09a5.77,5.77,0,0,1,.85.06,6.67,6.67,0,0,1,1,.24V5.83a.76.76,0,0,0-.39-.63,1.93,1.93,0,0,0-1-.24,3.83,3.83,0,0,0-.93.12,8.55,8.55,0,0,0-1.24.45l-.8-1.5a6.47,6.47,0,0,1,1.53-.7,5.89,5.89,0,0,1,1.6-.22,4.06,4.06,0,0,1,1.61.29,3,3,0,0,1,1.16.92c.12.17.23.33.31.47a2,2,0,0,1,.21.49,3.33,3.33,0,0,1,.1.58c0,.21,0,.45,0,.74v5.18Zm0-3.62a7.44,7.44,0,0,0-.93-.32,2.5,2.5,0,0,0-.66-.09,1.72,1.72,0,0,0-1.05.3,1,1,0,0,0-.4.79,1,1,0,0,0,.44.84,1.74,1.74,0,0,0,1.09.35,2.55,2.55,0,0,0,1.51-.53Z"/><path class="cls-1" d="M607.64,11.78h-2.16V1.24l2.16-.8Z"/><path class="cls-1" d="M612.52,11.78h-2.16V1.24l2.16-.8Z"/><path class="cls-1" d="M627.82,11.78v-.39a4.36,4.36,0,0,1-2.14.56,3,3,0,0,1-1.17-.22,2.78,2.78,0,0,1-.94-.61,2.86,2.86,0,0,1-.62-.93A3,3,0,0,1,622.72,9,2.91,2.91,0,0,1,623,7.84a2.65,2.65,0,0,1,.67-.94,3,3,0,0,1,1-.6A4,4,0,0,1,626,6.09a5.57,5.57,0,0,1,.85.06,6.75,6.75,0,0,1,1,.24V5.83a.75.75,0,0,0-.4-.63,1.86,1.86,0,0,0-1-.24,3.85,3.85,0,0,0-.94.12,9,9,0,0,0-1.24.45l-.8-1.5a6.85,6.85,0,0,1,1.53-.7,6,6,0,0,1,1.6-.22,4.08,4.08,0,0,1,1.62.29,3,3,0,0,1,1.15.92c.13.17.23.33.32.47a2.39,2.39,0,0,1,.2.49,2.6,2.6,0,0,1,.1.58c0,.21,0,.45,0,.74v5.18Zm0-3.62a8,8,0,0,0-.93-.32,2.52,2.52,0,0,0-.67-.09,1.67,1.67,0,0,0-1,.3.93.93,0,0,0-.4.79,1,1,0,0,0,.44.84,1.72,1.72,0,0,0,1.09.35,2.57,2.57,0,0,0,1.51-.53Z"/><path class="cls-1" d="M635.44,3.28h2.09V5.44h-2.09v3a1.57,1.57,0,0,0,.25,1.06,1,1,0,0,0,.75.27,1.27,1.27,0,0,0,.52-.11,2.87,2.87,0,0,0,.57-.42l-.31,2.31a3.38,3.38,0,0,1-.75.32,3.2,3.2,0,0,1-.8.09,2.69,2.69,0,0,1-1-.16,2.27,2.27,0,0,1-.76-.44,1.94,1.94,0,0,1-.49-.68,2.18,2.18,0,0,1-.18-.89V5.44H631.8V3.28h1.48v-2l2.16-.8Z"/><path class="cls-1" d="M650.69,3.28h2.09V5.44h-2.09v3a1.57,1.57,0,0,0,.25,1.06,1,1,0,0,0,.75.27,1.27,1.27,0,0,0,.52-.11,2.87,2.87,0,0,0,.57-.42l-.31,2.31a3.38,3.38,0,0,1-.75.32,3.26,3.26,0,0,1-.8.09,2.78,2.78,0,0,1-1-.16,2.32,2.32,0,0,1-.75-.44,2.1,2.1,0,0,1-.5-.68,2.35,2.35,0,0,1-.17-.89V5.44h-1.48V3.28h1.48v-2l2.16-.8Z"/><path class="cls-1" d="M657.35,3.69a5.4,5.4,0,0,1,1.07-.45,3.21,3.21,0,0,1,2.51.3A2.71,2.71,0,0,1,662,4.69a2.56,2.56,0,0,1,.16.4,3.83,3.83,0,0,1,.1.45,3.58,3.58,0,0,1,.05.61c0,.24,0,.54,0,.91v4.72h-2.16v-5a1.57,1.57,0,0,0-.37-1.11,1.32,1.32,0,0,0-1-.4,1.39,1.39,0,0,0-1,.41,1.5,1.5,0,0,0-.39,1.09v5h-2.16V1.24l2.16-.8Z"/><path class="cls-1" d="M666.7,8.19a1.94,1.94,0,0,0,.46,1.3,1.41,1.41,0,0,0,1.12.51,2,2,0,0,0,1.36-.56l1.55,1.17a4.55,4.55,0,0,1-1.37,1,3.65,3.65,0,0,1-1.52.3,4,4,0,0,1-1.59-.3,3.31,3.31,0,0,1-1.2-.89,4,4,0,0,1-.76-1.39,6.2,6.2,0,0,1-.26-1.84A4.41,4.41,0,0,1,665.7,4.2a4.08,4.08,0,0,1,2.73-1.09,2.87,2.87,0,0,1,1.69.52,3.67,3.67,0,0,1,1.19,1.49,4.62,4.62,0,0,1,.34,1,7,7,0,0,1,.1,1.21v.85Zm2.79-1.71a1.46,1.46,0,0,0-.39-1,1.18,1.18,0,0,0-.92-.4,1.26,1.26,0,0,0-.93.36,1.94,1.94,0,0,0-.48,1.05Z"/><path class="cls-1" d="M688.32,3.59a4.87,4.87,0,0,0-1.26-.83,3.49,3.49,0,0,0-1.32-.26,2.61,2.61,0,0,0-1.26.27.8.8,0,0,0-.49.72c0,.38.22.64.68.76l.24.08.22,0,.3.07a4.38,4.38,0,0,0,.53.12l.22,0,.21,0,.33.07.58.16a7.05,7.05,0,0,1,.77.2c.21.07.4.14.56.21a3.48,3.48,0,0,1,.43.25,2.72,2.72,0,0,1,.38.31,3.18,3.18,0,0,1,1,2.41,3.21,3.21,0,0,1-1.39,2.7,5.1,5.1,0,0,1-1.51.76,6.06,6.06,0,0,1-1.74.26,5.67,5.67,0,0,1-2.67-.65,5.43,5.43,0,0,1-2-1.83L683,8.21a3.52,3.52,0,0,0,1.24,1.1,3.35,3.35,0,0,0,1.55.38,3.72,3.72,0,0,0,.91-.11,2.56,2.56,0,0,0,.75-.31,1.75,1.75,0,0,0,.5-.47,1,1,0,0,0,.18-.57.89.89,0,0,0-.42-.8l-.13-.07a1.2,1.2,0,0,0-.25-.08l-.59-.15-1.11-.28c-.52-.12-.95-.23-1.28-.33a8.28,8.28,0,0,1-.85-.29,3.57,3.57,0,0,1-.59-.31,4.3,4.3,0,0,1-.47-.41,2.27,2.27,0,0,1-.52-.86,3.25,3.25,0,0,1-.2-1.11A3.15,3.15,0,0,1,682,2.18a3,3,0,0,1,.83-1.05,3.85,3.85,0,0,1,1.29-.67,5.86,5.86,0,0,1,4,.23A5.38,5.38,0,0,1,690,2.07Z"/><path class="cls-1" d="M695.33,3.28h2.09V5.44h-2.09v3a1.57,1.57,0,0,0,.25,1.06,1,1,0,0,0,.75.27,1.24,1.24,0,0,0,.52-.11,2.87,2.87,0,0,0,.57-.42l-.31,2.31a3.38,3.38,0,0,1-.75.32,3.2,3.2,0,0,1-.8.09,2.69,2.69,0,0,1-1-.16,2.27,2.27,0,0,1-.76-.44,2.08,2.08,0,0,1-.49-.68,2.18,2.18,0,0,1-.18-.89V5.44h-1.48V3.28h1.48v-2l2.16-.8Z"/><path class="cls-1" d="M701.84,3.28v.61a3.16,3.16,0,0,1,.87-.61,2.37,2.37,0,0,1,.9-.17,3.13,3.13,0,0,1,1.63.48l-.67,2.33a2.21,2.21,0,0,0-.57-.41,1.37,1.37,0,0,0-.58-.12,1.52,1.52,0,0,0-.94.33,1.58,1.58,0,0,0-.56.82c0,.13,0,.26-.07.4s0,.33,0,.59v4.25h-2.16V3.28Z"/><path class="cls-1" d="M711.46,11.78v-.39a4.36,4.36,0,0,1-2.14.56,3.1,3.1,0,0,1-1.18-.22,2.79,2.79,0,0,1-1.55-1.54A3,3,0,0,1,706.36,9a2.91,2.91,0,0,1,.24-1.19,2.65,2.65,0,0,1,.67-.94,3,3,0,0,1,1-.6,4,4,0,0,1,1.33-.21,5.57,5.57,0,0,1,.85.06,7.09,7.09,0,0,1,1,.24V5.83a.77.77,0,0,0-.4-.63,1.86,1.86,0,0,0-1-.24,3.85,3.85,0,0,0-.94.12,9,9,0,0,0-1.24.45l-.8-1.5a6.47,6.47,0,0,1,1.53-.7,5.89,5.89,0,0,1,1.6-.22,4.12,4.12,0,0,1,1.62.29,3,3,0,0,1,1.15.92c.13.17.23.33.32.47a2.39,2.39,0,0,1,.2.49,2.6,2.6,0,0,1,.1.58c0,.21,0,.45,0,.74v5.18Zm0-3.62a7.47,7.47,0,0,0-.94-.32,2.39,2.39,0,0,0-.66-.09,1.67,1.67,0,0,0-1,.3.93.93,0,0,0-.4.79,1,1,0,0,0,.44.84A1.72,1.72,0,0,0,710,10a2.57,2.57,0,0,0,1.51-.53Z"/><path class="cls-1" d="M718.28,3.28v.61a3.16,3.16,0,0,1,.87-.61,2.35,2.35,0,0,1,.89-.17,3.17,3.17,0,0,1,1.64.48L721,5.92a2.21,2.21,0,0,0-.57-.41,1.37,1.37,0,0,0-.58-.12,1.52,1.52,0,0,0-.94.33,1.58,1.58,0,0,0-.56.82,2.57,2.57,0,0,0-.07.4c0,.13,0,.33,0,.59v4.25h-2.16V3.28Z"/><path class="cls-1" d="M725.57,3.28v.61a3.32,3.32,0,0,1,.87-.61,2.37,2.37,0,0,1,.9-.17,3.13,3.13,0,0,1,1.63.48l-.66,2.33a2.41,2.41,0,0,0-.58-.41,1.34,1.34,0,0,0-.58-.12,1.47,1.47,0,0,0-.93.33,1.54,1.54,0,0,0-.57.82,2.57,2.57,0,0,0-.06.4,4.64,4.64,0,0,0,0,.59v4.25h-2.16V3.28Z"/><path class="cls-1" d="M732.33,8.19a2,2,0,0,0,.46,1.3,1.43,1.43,0,0,0,1.13.51,2,2,0,0,0,1.36-.56l1.54,1.17a4.32,4.32,0,0,1-1.37,1,3.58,3.58,0,0,1-1.52.3,4,4,0,0,1-1.59-.3,3.19,3.19,0,0,1-1.19-.89,3.89,3.89,0,0,1-.76-1.39,5.88,5.88,0,0,1-.27-1.84,4.44,4.44,0,0,1,1.21-3.33,4.08,4.08,0,0,1,2.74-1.09,2.86,2.86,0,0,1,1.68.52,3.51,3.51,0,0,1,1.19,1.49,4.15,4.15,0,0,1,.34,1,6.15,6.15,0,0,1,.1,1.21v.85Zm2.79-1.71a1.5,1.5,0,0,0-.38-1,1.18,1.18,0,0,0-.93-.4,1.25,1.25,0,0,0-.92.36,1.88,1.88,0,0,0-.49,1.05Z"/><path class="cls-1" d="M742.57,3.28h2.09V5.44h-2.09v3a1.57,1.57,0,0,0,.25,1.06,1,1,0,0,0,.75.27,1.24,1.24,0,0,0,.52-.11,2.87,2.87,0,0,0,.57-.42l-.31,2.31a3.52,3.52,0,0,1-.74.32,3.32,3.32,0,0,1-.8.09,2.74,2.74,0,0,1-1-.16,2.27,2.27,0,0,1-.76-.44,2.08,2.08,0,0,1-.49-.68,2.18,2.18,0,0,1-.18-.89V5.44h-1.48V3.28h1.48v-2l2.16-.8Z"/><path class="cls-1" d="M749.88,3.28H752V5.44h-2.09v3a1.57,1.57,0,0,0,.25,1.06,1,1,0,0,0,.75.27,1.24,1.24,0,0,0,.52-.11,2.87,2.87,0,0,0,.57-.42l-.31,2.31a3.52,3.52,0,0,1-.74.32,3.32,3.32,0,0,1-.8.09,2.74,2.74,0,0,1-1-.16,2.27,2.27,0,0,1-.76-.44,2.08,2.08,0,0,1-.49-.68,2.18,2.18,0,0,1-.18-.89V5.44h-1.48V3.28h1.48v-2l2.16-.8Z"/><path class="cls-1" d="M756.65,7.87h-3.78V6.21h3.78Z"/><path class="cls-1" d="M760.15.44V9.52h6.46v2.26h-8.72V.44Z"/><path class="cls-1" d="M769.73,8.19a2,2,0,0,0,.46,1.3,1.43,1.43,0,0,0,1.13.51,2,2,0,0,0,1.36-.56l1.54,1.17a4.32,4.32,0,0,1-1.37,1,3.58,3.58,0,0,1-1.52.3,4,4,0,0,1-1.59-.3,3.31,3.31,0,0,1-1.2-.89,4,4,0,0,1-.75-1.39,5.88,5.88,0,0,1-.27-1.84,4.44,4.44,0,0,1,1.21-3.33,4.08,4.08,0,0,1,2.74-1.09,2.86,2.86,0,0,1,1.68.52,3.51,3.51,0,0,1,1.19,1.49,4.15,4.15,0,0,1,.34,1,6.15,6.15,0,0,1,.1,1.21v.85Zm2.79-1.71a1.5,1.5,0,0,0-.38-1,1.18,1.18,0,0,0-.93-.4,1.25,1.25,0,0,0-.92.36,1.88,1.88,0,0,0-.49,1.05Z"/><path class="cls-1" d="M779,3.69a5.65,5.65,0,0,1,1.07-.45,3.24,3.24,0,0,1,.94-.13,3.14,3.14,0,0,1,1.57.43,2.71,2.71,0,0,1,1.08,1.15,2.56,2.56,0,0,1,.16.4,2.51,2.51,0,0,1,.1.45,4.84,4.84,0,0,1,.06.61v5.63H781.8v-5a1.57,1.57,0,0,0-.37-1.11,1.32,1.32,0,0,0-1-.4,1.39,1.39,0,0,0-1,.41A1.5,1.5,0,0,0,779,6.77v5h-2.16V1.24L779,.44Z"/><path class="cls-1" d="M787.62.42a1.07,1.07,0,0,1,.79.35,1.09,1.09,0,0,1,.33.79A1.13,1.13,0,0,1,787.6,2.7a1.13,1.13,0,0,1-1.14-1.15,1.07,1.07,0,0,1,.33-.79A1.16,1.16,0,0,1,787.62.42Zm-1.11,11.36V3.28h2.16v8.5Z"/><path class="cls-1" d="M798.36,10.9c0,.33,0,.59,0,.8a4.39,4.39,0,0,1,0,.54,2.66,2.66,0,0,1-.08.44c0,.14-.07.29-.12.46a3.37,3.37,0,0,1-.69,1.26,5.3,5.3,0,0,1-1.35,1c-.25.14-.46.26-.65.35a4.34,4.34,0,0,1-.64.22L794,14.2a5.69,5.69,0,0,0,1-.51,3,3,0,0,0,.69-.63,2.51,2.51,0,0,0,.38-.81,4.56,4.56,0,0,0,.13-1.05,3.21,3.21,0,0,1-.9.57,2.55,2.55,0,0,1-1,.18,2.58,2.58,0,0,1-1.17-.28,3.39,3.39,0,0,1-1-.77,3.66,3.66,0,0,1-.79-1.38,6.46,6.46,0,0,1-.25-1.89,7.33,7.33,0,0,1,.23-1.88A4.34,4.34,0,0,1,792,4.33a3,3,0,0,1,1-.9,3,3,0,0,1,1.38-.32,3,3,0,0,1,.83.11,5.77,5.77,0,0,1,1,.42V3.28h2.16ZM796.2,6.09a2.19,2.19,0,0,0-.6-.73,1.33,1.33,0,0,0-.76-.21,1.42,1.42,0,0,0-1.22.64,2.82,2.82,0,0,0-.46,1.71,2.57,2.57,0,0,0,.47,1.59,1.48,1.48,0,0,0,1.23.6,1.44,1.44,0,0,0,1.34-.87Z"/><path class="cls-1" d="M802.78,3.69a5.65,5.65,0,0,1,1.07-.45,3.24,3.24,0,0,1,.94-.13,3.14,3.14,0,0,1,1.57.43,2.71,2.71,0,0,1,1.08,1.15,2.56,2.56,0,0,1,.16.4,2.51,2.51,0,0,1,.1.45,3.58,3.58,0,0,1,0,.61c0,.24,0,.54,0,.91v4.72H805.6v-5a1.57,1.57,0,0,0-.37-1.11,1.32,1.32,0,0,0-1-.4,1.39,1.39,0,0,0-1,.41,1.5,1.5,0,0,0-.39,1.09v5h-2.16V1.24l2.16-.8Z"/><path class="cls-1" d="M823.54.44l.61,0a2.73,2.73,0,0,1,.45.06,2.4,2.4,0,0,1,.38.12l.4.19A3.21,3.21,0,0,1,826.57,2,3.12,3.12,0,0,1,827,3.62a2.7,2.7,0,0,1-.18,1,5.11,5.11,0,0,1-.62,1,3.33,3.33,0,0,1,1.17,2.6,3.56,3.56,0,0,1-.31,1.47,3.33,3.33,0,0,1-.9,1.2,3.11,3.11,0,0,1-1.13.66,4.81,4.81,0,0,1-1.47.19H818.2V.44Zm-.14,4.15c.88,0,1.31-.33,1.31-1a.76.76,0,0,0-.29-.69,2,2,0,0,0-1.07-.2h-2.89V4.59Zm.05,4.93a3.17,3.17,0,0,0,.8-.08,1.31,1.31,0,0,0,.51-.33,1.25,1.25,0,0,0,.36-.86,1.28,1.28,0,0,0-.39-.94,1.36,1.36,0,0,0-.52-.36,2.28,2.28,0,0,0-.77-.1h-3V9.52Z"/><path class="cls-1" d="M834.59,11.37a5.16,5.16,0,0,1-1.07.45,3.58,3.58,0,0,1-1,.13,3.1,3.1,0,0,1-1.6-.43,2.76,2.76,0,0,1-1.1-1.15,2.56,2.56,0,0,1-.16-.4,3.83,3.83,0,0,1-.1-.45,3.49,3.49,0,0,1,0-.61c0-.24,0-.54,0-.9V3.28h2.16v5A1.55,1.55,0,0,0,832,9.39a1.41,1.41,0,0,0,1.09.4,1.38,1.38,0,0,0,1.48-1.49v-5h2.16v8.5h-2.16Z"/><path class="cls-1" d="M840.61.42a1.07,1.07,0,0,1,.79.35,1.09,1.09,0,0,1,.33.79,1.14,1.14,0,1,1-2.28,0,1.07,1.07,0,0,1,.33-.79A1.14,1.14,0,0,1,840.61.42ZM839.5,11.78V3.28h2.16v8.5Z"/><path class="cls-1" d="M846.59,11.78h-2.16V1.24l2.16-.8Z"/><path class="cls-1" d="M856.11.44V11.78H854v-.47a2.55,2.55,0,0,1-.88.47,3.46,3.46,0,0,1-1.06.17,2.57,2.57,0,0,1-.94-.18,2.75,2.75,0,0,1-.84-.5,3.33,3.33,0,0,1-1-1.48A6.82,6.82,0,0,1,849,7.53a4.82,4.82,0,0,1,1-3.33A3.28,3.28,0,0,1,851,3.41a2.86,2.86,0,0,1,1.24-.3,2.48,2.48,0,0,1,.89.15,4.37,4.37,0,0,1,.88.51V1.24ZM854,6.15a1.62,1.62,0,0,0-1.36-.88,1.3,1.3,0,0,0-1.13.6,2.68,2.68,0,0,0-.42,1.59,2.88,2.88,0,0,0,.44,1.68,1.4,1.4,0,0,0,1.18.62A1.63,1.63,0,0,0,854,9Z"/><path class="cls-1" d="M860,.42a1.07,1.07,0,0,1,.79.35,1.09,1.09,0,0,1,.33.79,1.14,1.14,0,1,1-2.28,0,1.07,1.07,0,0,1,.33-.79A1.14,1.14,0,0,1,860,.42Zm-1.11,11.36V3.28H861v8.5Z"/><path class="cls-1" d="M866,3.69A5.16,5.16,0,0,1,867,3.24a3.56,3.56,0,0,1,1-.13,3.14,3.14,0,0,1,1.6.43,2.8,2.8,0,0,1,1.09,1.15,2.56,2.56,0,0,1,.16.4,3.71,3.71,0,0,1,.11.45c0,.17,0,.38,0,.61v5.63H868.9v-5a1.57,1.57,0,0,0-.38-1.11,1.37,1.37,0,0,0-1.07-.4,1.46,1.46,0,0,0-1.08.4,1.47,1.47,0,0,0-.4,1.1v5h-2.16V3.28H866Z"/><path class="cls-1" d="M880.47,10.9c0,.33,0,.59,0,.8a4.39,4.39,0,0,1,0,.54,2.66,2.66,0,0,1-.08.44c0,.14-.07.29-.12.46a3.37,3.37,0,0,1-.69,1.26,5.3,5.3,0,0,1-1.35,1c-.24.14-.46.26-.65.35a4.34,4.34,0,0,1-.64.22l-.81-1.81a6.17,6.17,0,0,0,1-.51,2.9,2.9,0,0,0,.67-.63,2.34,2.34,0,0,0,.39-.81,4.56,4.56,0,0,0,.13-1.05,3.21,3.21,0,0,1-.9.57,2.55,2.55,0,0,1-1,.18,2.58,2.58,0,0,1-1.17-.28,3.27,3.27,0,0,1-1-.77,3.66,3.66,0,0,1-.79-1.38,6.46,6.46,0,0,1-.25-1.89,7.33,7.33,0,0,1,.23-1.88,4.34,4.34,0,0,1,.66-1.42,3,3,0,0,1,1-.9,3,3,0,0,1,1.38-.32,3,3,0,0,1,.83.11,5.77,5.77,0,0,1,1,.42V3.28h2.16Zm-2.16-4.81a2.19,2.19,0,0,0-.6-.73,1.33,1.33,0,0,0-.76-.21,1.42,1.42,0,0,0-1.22.64,2.82,2.82,0,0,0-.46,1.71,2.57,2.57,0,0,0,.47,1.59,1.48,1.48,0,0,0,1.23.6,1.44,1.44,0,0,0,1.34-.87Z"/><path class="cls-1" d="M883.57,13h-1.52l.55-2.6h1.95Z"/><path class="cls-1" d="M901.13,3.59a4.91,4.91,0,0,0-1.27-.83,3.41,3.41,0,0,0-1.32-.26,2.61,2.61,0,0,0-1.26.27.82.82,0,0,0-.49.72c0,.38.23.64.68.76l.25.08.21,0,.31.07a4.15,4.15,0,0,0,.52.12l.22,0,.22,0,.33.07.58.16a6.83,6.83,0,0,1,.76.2,5.64,5.64,0,0,1,.56.21,3.63,3.63,0,0,1,.44.25,3.45,3.45,0,0,1,.38.31,3.18,3.18,0,0,1,1,2.41,3.22,3.22,0,0,1-1.4,2.7,5,5,0,0,1-1.51.76,6,6,0,0,1-1.73.26,5.61,5.61,0,0,1-2.67-.65,5.38,5.38,0,0,1-2-1.83l1.85-1.31a3.6,3.6,0,0,0,1.24,1.1,3.38,3.38,0,0,0,1.55.38,3.87,3.87,0,0,0,.92-.11,2.81,2.81,0,0,0,.75-.31,1.89,1.89,0,0,0,.5-.47,1,1,0,0,0,.18-.57.9.9,0,0,0-.43-.8l-.13-.07a1.2,1.2,0,0,0-.25-.08l-.59-.15c-.26-.06-.63-.15-1.1-.28s-1-.23-1.29-.33-.61-.19-.85-.29a3.44,3.44,0,0,1-.58-.31,4.37,4.37,0,0,1-.48-.41,2.41,2.41,0,0,1-.52-.86,3.24,3.24,0,0,1-.19-1.11,3,3,0,0,1,.29-1.36,2.89,2.89,0,0,1,.82-1.05A3.94,3.94,0,0,1,897,.46a5.61,5.61,0,0,1,1.69-.24,5.42,5.42,0,0,1,4.14,1.85Z"/><path class="cls-1" d="M910.05,11.78v-.39a4.36,4.36,0,0,1-2.14.56,3,3,0,0,1-1.17-.22,2.78,2.78,0,0,1-.94-.61,2.86,2.86,0,0,1-.62-.93A3,3,0,0,1,905,9a2.91,2.91,0,0,1,.24-1.19,2.65,2.65,0,0,1,.67-.94,3.05,3.05,0,0,1,1-.6,4,4,0,0,1,1.33-.21,5.57,5.57,0,0,1,.85.06,6.75,6.75,0,0,1,1,.24V5.83a.75.75,0,0,0-.4-.63,1.86,1.86,0,0,0-1-.24,3.71,3.71,0,0,0-.93.12,8.6,8.6,0,0,0-1.25.45L905.67,4a6.59,6.59,0,0,1,1.52-.7,6,6,0,0,1,1.6-.22,4.08,4.08,0,0,1,1.62.29,2.89,2.89,0,0,1,1.15.92c.13.17.23.33.32.47a2.39,2.39,0,0,1,.2.49,2.6,2.6,0,0,1,.1.58c0,.21,0,.45,0,.74v5.18Zm0-3.62a8,8,0,0,0-.93-.32,2.52,2.52,0,0,0-.67-.09,1.67,1.67,0,0,0-1,.3.93.93,0,0,0-.4.79,1,1,0,0,0,.44.84,1.72,1.72,0,0,0,1.09.35,2.57,2.57,0,0,0,1.51-.53Z"/><path class="cls-1" d="M917.67,3.28h2.09V5.44h-2.09v3a1.57,1.57,0,0,0,.25,1.06,1,1,0,0,0,.75.27,1.24,1.24,0,0,0,.52-.11,2.87,2.87,0,0,0,.57-.42l-.31,2.31a3.38,3.38,0,0,1-.75.32,3.2,3.2,0,0,1-.8.09,2.69,2.69,0,0,1-1-.16,2.27,2.27,0,0,1-.76-.44,1.94,1.94,0,0,1-.49-.68,2.18,2.18,0,0,1-.18-.89V5.44H914V3.28h1.48v-2l2.16-.8Z"/><path class="cls-1" d="M926.9,11.37a5.16,5.16,0,0,1-1.07.45,3.58,3.58,0,0,1-1,.13,3.1,3.1,0,0,1-1.6-.43,2.7,2.7,0,0,1-1.1-1.15A2.56,2.56,0,0,1,922,10a2.51,2.51,0,0,1-.1-.45,3.49,3.49,0,0,1-.05-.61c0-.24,0-.54,0-.9V3.28H924v5a1.55,1.55,0,0,0,.37,1.11,1.41,1.41,0,0,0,1.09.4,1.46,1.46,0,0,0,1.08-.4,1.49,1.49,0,0,0,.4-1.09v-5h2.16v8.5H926.9Z"/><path class="cls-1" d="M933.92,3.28v.61a3.32,3.32,0,0,1,.87-.61,2.37,2.37,0,0,1,.9-.17,3.13,3.13,0,0,1,1.63.48l-.66,2.33a2.41,2.41,0,0,0-.58-.41,1.37,1.37,0,0,0-.58-.12,1.52,1.52,0,0,0-.94.33,1.58,1.58,0,0,0-.56.82,2.57,2.57,0,0,0-.06.4,4.64,4.64,0,0,0,0,.59v4.25h-2.16V3.28Z"/><path class="cls-1" d="M945.65.44V11.78h-2.09v-.47a2.55,2.55,0,0,1-.88.47,3.46,3.46,0,0,1-1.06.17,2.57,2.57,0,0,1-.94-.18,2.69,2.69,0,0,1-.85-.5,3.41,3.41,0,0,1-1-1.48,6.84,6.84,0,0,1-.31-2.26,4.82,4.82,0,0,1,1-3.33,3.28,3.28,0,0,1,1.07-.79,2.86,2.86,0,0,1,1.24-.3,2.48,2.48,0,0,1,.89.15,4.37,4.37,0,0,1,.88.51V1.24Zm-2.09,5.71a1.64,1.64,0,0,0-1.36-.88,1.29,1.29,0,0,0-1.13.6,2.68,2.68,0,0,0-.42,1.59,2.88,2.88,0,0,0,.44,1.68,1.4,1.4,0,0,0,1.18.62A1.65,1.65,0,0,0,943.56,9Z"/><path class="cls-1" d="M953,11.78v-.39a4.36,4.36,0,0,1-2.14.56,3.1,3.1,0,0,1-1.18-.22,2.79,2.79,0,0,1-1.55-1.54A3,3,0,0,1,947.91,9a2.91,2.91,0,0,1,.24-1.19,2.65,2.65,0,0,1,.67-.94,3,3,0,0,1,1-.6,4,4,0,0,1,1.33-.21,5.57,5.57,0,0,1,.85.06,7.09,7.09,0,0,1,1,.24V5.83a.77.77,0,0,0-.4-.63,1.89,1.89,0,0,0-1-.24,3.85,3.85,0,0,0-.94.12,9,9,0,0,0-1.24.45l-.8-1.5a6.47,6.47,0,0,1,1.53-.7,5.89,5.89,0,0,1,1.6-.22,4.12,4.12,0,0,1,1.62.29,3,3,0,0,1,1.15.92c.13.17.23.33.32.47a2.39,2.39,0,0,1,.2.49,3.33,3.33,0,0,1,.1.58c0,.21,0,.45,0,.74v5.18Zm0-3.62a7.47,7.47,0,0,0-.94-.32,2.39,2.39,0,0,0-.66-.09,1.67,1.67,0,0,0-1,.3.93.93,0,0,0-.4.79,1,1,0,0,0,.44.84,1.72,1.72,0,0,0,1.09.35A2.57,2.57,0,0,0,953,9.5Z"/><path class="cls-1" d="M958.67,3.28l2.38,5.54,2.07-5.54h2.33L961,14.91h-2.28L960,11.73l-3.64-8.45Z"/><path class="cls-1" d="M977.08.44l3.67,6.48L984.41.44h2.22V11.78h-2.26V5.08l-3.62,6.7-3.64-6.7v6.7h-2.26V.44Z"/><path class="cls-1" d="M994,11.78v-.39a4.33,4.33,0,0,1-2.14.56,3,3,0,0,1-1.17-.22,2.88,2.88,0,0,1-.94-.61,3,3,0,0,1-.62-.93A3,3,0,0,1,988.89,9a2.91,2.91,0,0,1,.24-1.19,2.65,2.65,0,0,1,.67-.94,3.05,3.05,0,0,1,1-.6,4,4,0,0,1,1.33-.21,5.81,5.81,0,0,1,.86.06,6.67,6.67,0,0,1,1,.24V5.83a.75.75,0,0,0-.4-.63,1.86,1.86,0,0,0-1-.24,3.77,3.77,0,0,0-.93.12,8.55,8.55,0,0,0-1.24.45l-.8-1.5a6.47,6.47,0,0,1,1.53-.7,5.89,5.89,0,0,1,1.6-.22,4.06,4.06,0,0,1,1.61.29,3,3,0,0,1,1.16.92c.12.17.23.33.31.47a2.41,2.41,0,0,1,.21.49,3.33,3.33,0,0,1,.1.58c0,.21,0,.45,0,.74v5.18Zm0-3.62a7.44,7.44,0,0,0-.93-.32,2.5,2.5,0,0,0-.66-.09,1.7,1.7,0,0,0-1,.3.93.93,0,0,0-.4.79,1,1,0,0,0,.44.84,1.74,1.74,0,0,0,1.09.35A2.55,2.55,0,0,0,994,9.5Z"/><path class="cls-1" d="M1000.81,3.28v.61a3.19,3.19,0,0,1,.88-.61,2.28,2.28,0,0,1,.89-.17,3.13,3.13,0,0,1,1.63.48l-.66,2.33a2.41,2.41,0,0,0-.58-.41,1.34,1.34,0,0,0-.58-.12,1.47,1.47,0,0,0-.93.33,1.52,1.52,0,0,0-.56.82,1.76,1.76,0,0,0-.07.4c0,.13,0,.33,0,.59v4.25h-2.16V3.28Z"/><path class="cls-1" d="M1011.1,6.26a3.56,3.56,0,0,0-.85-1,1.59,1.59,0,0,0-.92-.28,1.39,1.39,0,0,0-.72.19,1.69,1.69,0,0,0-.58.52,2.54,2.54,0,0,0-.39.79,3.42,3.42,0,0,0-.13,1,3.45,3.45,0,0,0,.14,1,2.79,2.79,0,0,0,.4.79,1.82,1.82,0,0,0,.61.53,1.6,1.6,0,0,0,.75.18,1.77,1.77,0,0,0,1-.32,2.73,2.73,0,0,0,.81-.9l1.38,1.39a4.1,4.1,0,0,1-1.45,1.3,3.84,3.84,0,0,1-1.84.47,3.77,3.77,0,0,1-1.72-.43,4,4,0,0,1-1.4-1.15,3.88,3.88,0,0,1-.65-1.24,5.07,5.07,0,0,1-.2-1.53,4.51,4.51,0,0,1,1.17-3.28,4.21,4.21,0,0,1,1.29-.88,3.64,3.64,0,0,1,1.48-.33,3.58,3.58,0,0,1,1.74.45,3.75,3.75,0,0,1,1.34,1.22Z"/><path class="cls-1" d="M1016.72,3.69a5.65,5.65,0,0,1,1.07-.45,3.24,3.24,0,0,1,.94-.13,3.14,3.14,0,0,1,1.57.43,2.71,2.71,0,0,1,1.08,1.15,2.56,2.56,0,0,1,.16.4,2.51,2.51,0,0,1,.1.45,3.58,3.58,0,0,1,.05.61c0,.24,0,.54,0,.91v4.72h-2.16v-5a1.57,1.57,0,0,0-.37-1.11,1.32,1.32,0,0,0-1-.4,1.39,1.39,0,0,0-1,.41,1.5,1.5,0,0,0-.39,1.09v5h-2.16V1.24l2.16-.8Z"/><path class="cls-1" d="M1035.52.44V11.78h-2.26V3.64h-1.58V1.7a3.16,3.16,0,0,0,1.1-.42,2.51,2.51,0,0,0,.75-.84Z"/><path class="cls-1" d="M1037.85,2.11a5.82,5.82,0,0,1,1.9-1.4,5.1,5.1,0,0,1,3.79-.23,5,5,0,0,1,1.38.71,2.74,2.74,0,0,1,1.16,2.35,2.68,2.68,0,0,1-.17,1,4.47,4.47,0,0,1-.63,1,4.23,4.23,0,0,1,1,1.3,3.39,3.39,0,0,1,.31,1.49,3.35,3.35,0,0,1-.21,1.16,2.61,2.61,0,0,1-.6,1,4.89,4.89,0,0,1-1.72,1.12A5.74,5.74,0,0,1,1042,12a6.06,6.06,0,0,1-3.83-1.43,3.93,3.93,0,0,1-.81-.93l1.8-1.36a3.72,3.72,0,0,0,2.9,1.43,3,3,0,0,0,.85-.12,2.87,2.87,0,0,0,.73-.32,2.08,2.08,0,0,0,.51-.46.88.88,0,0,0,.2-.53,1.18,1.18,0,0,0-.16-.61,1.66,1.66,0,0,0-.44-.51,2.14,2.14,0,0,0-.65-.35,2.19,2.19,0,0,0-.77-.13h-.43V4.44h.43a1.76,1.76,0,0,0,1-.27.83.83,0,0,0,.4-.7.56.56,0,0,0-.14-.38,1.35,1.35,0,0,0-.38-.32,2.52,2.52,0,0,0-.55-.22,2.39,2.39,0,0,0-.66-.09,3.38,3.38,0,0,0-2.4,1.13Z"/><path class="cls-1" d="M1049.4,13h-1.52l.55-2.6h2Z"/><path class="cls-1" d="M1063.74.44V11.78h-2.26V3.64h-1.58V1.7a3.16,3.16,0,0,0,1.1-.42,2.51,2.51,0,0,0,.75-.84Z"/><path class="cls-1" d="M1067.42,9.4a3.24,3.24,0,0,0,.44.07l.35,0a4.62,4.62,0,0,0,1.41-.23,5.45,5.45,0,0,0,1.31-.62,4,4,0,0,0,.83-.72,6.08,6.08,0,0,0,.67-1,9.17,9.17,0,0,1-1,.24,7.39,7.39,0,0,1-.86,0,6.64,6.64,0,0,1-2.18-.35,4.46,4.46,0,0,1-1.68-1,2.56,2.56,0,0,1-.59-.94,3.21,3.21,0,0,1-.22-1.18,3.12,3.12,0,0,1,.32-1.45,3,3,0,0,1,.91-1.09,4.07,4.07,0,0,1,1.43-.7,6.5,6.5,0,0,1,1.89-.25,6.26,6.26,0,0,1,2.42.43,3.45,3.45,0,0,1,1.58,1.22,4.36,4.36,0,0,1,.54,1.28,6.66,6.66,0,0,1,.2,1.7,7.54,7.54,0,0,1-.23,1.84,6.83,6.83,0,0,1-.69,1.67,6.76,6.76,0,0,1-1.11,1.41,6.68,6.68,0,0,1-1.47,1.09,7.55,7.55,0,0,1-1.72.69,6.59,6.59,0,0,1-1.78.25h-.34l-.42,0Zm3.06-6.88a5.49,5.49,0,0,0-1.08.1,2.55,2.55,0,0,0-.85.29,1,1,0,0,0-.3.33.9.9,0,0,0,0,.9,1,1,0,0,0,.3.33,3.16,3.16,0,0,0,.84.28,4.8,4.8,0,0,0,1.07.11,5.6,5.6,0,0,0,1.09-.1,2.72,2.72,0,0,0,.85-.29,1,1,0,0,0,.3-.33.9.9,0,0,0,0-.9,1,1,0,0,0-.3-.33,2.55,2.55,0,0,0-.85-.29A5.46,5.46,0,0,0,1070.48,2.52Z"/><path class="cls-1" d="M1078.52,9.4a3.24,3.24,0,0,0,.44.07l.36,0a4.72,4.72,0,0,0,1.41-.23,5.84,5.84,0,0,0,1.31-.62,3.94,3.94,0,0,0,.82-.72,6.08,6.08,0,0,0,.67-1,9.17,9.17,0,0,1-1,.24,7.39,7.39,0,0,1-.86,0,6.54,6.54,0,0,1-2.17-.35,4.42,4.42,0,0,1-1.69-1,2.56,2.56,0,0,1-.59-.94,3.21,3.21,0,0,1-.22-1.18,3.12,3.12,0,0,1,.32-1.45,3,3,0,0,1,.91-1.09,4.07,4.07,0,0,1,1.43-.7,6.5,6.5,0,0,1,1.89-.25,6.26,6.26,0,0,1,2.42.43,3.45,3.45,0,0,1,1.58,1.22,4.11,4.11,0,0,1,.54,1.28,6.65,6.65,0,0,1,.21,1.7,7.09,7.09,0,0,1-.24,1.84,6.83,6.83,0,0,1-.69,1.67,6.76,6.76,0,0,1-1.11,1.41,6.68,6.68,0,0,1-1.47,1.09,7.55,7.55,0,0,1-1.72.69,6.59,6.59,0,0,1-1.78.25h-.34l-.42,0Zm3.06-6.88a5.49,5.49,0,0,0-1.08.1,2.41,2.41,0,0,0-.84.29.92.92,0,0,0-.31,1.23.9.9,0,0,0,.31.33,3,3,0,0,0,.83.28,4.8,4.8,0,0,0,1.07.11,5.6,5.6,0,0,0,1.09-.1,2.72,2.72,0,0,0,.85-.29,1,1,0,0,0,.3-.33.9.9,0,0,0,0-.9,1,1,0,0,0-.3-.33,2.57,2.57,0,0,0-.84-.29A5.64,5.64,0,0,0,1081.58,2.52Z"/><path class="cls-1" d="M1089.62,9.4a3.5,3.5,0,0,0,.44.07l.36,0a4.72,4.72,0,0,0,1.41-.23,5.84,5.84,0,0,0,1.31-.62,3.94,3.94,0,0,0,.82-.72,6.08,6.08,0,0,0,.67-1,8.66,8.66,0,0,1-1,.24,7.25,7.25,0,0,1-.86,0,6.54,6.54,0,0,1-2.17-.35,4.42,4.42,0,0,1-1.69-1,2.69,2.69,0,0,1-.59-.94,3.21,3.21,0,0,1-.22-1.18,3.12,3.12,0,0,1,.32-1.45,3,3,0,0,1,.91-1.09,4.07,4.07,0,0,1,1.43-.7,6.5,6.5,0,0,1,1.89-.25,6.23,6.23,0,0,1,2.42.43,3.45,3.45,0,0,1,1.58,1.22,4.11,4.11,0,0,1,.54,1.28,6.65,6.65,0,0,1,.21,1.7,7.09,7.09,0,0,1-.24,1.84,6.83,6.83,0,0,1-.69,1.67,6.76,6.76,0,0,1-1.11,1.41,6.68,6.68,0,0,1-1.47,1.09,7.55,7.55,0,0,1-1.72.69,6.59,6.59,0,0,1-1.78.25H1090l-.42,0Zm3.06-6.88a5.49,5.49,0,0,0-1.08.1,2.41,2.41,0,0,0-.84.29.92.92,0,0,0-.31,1.23.9.9,0,0,0,.31.33,3,3,0,0,0,.83.28,4.8,4.8,0,0,0,1.07.11,5.6,5.6,0,0,0,1.09-.1,2.72,2.72,0,0,0,.85-.29,1,1,0,0,0,.3-.33.9.9,0,0,0,0-.9,1,1,0,0,0-.3-.33,2.57,2.57,0,0,0-.84-.29A5.64,5.64,0,0,0,1092.68,2.52Z"/><path class="cls-1" d="M1100.12,9.5a1.08,1.08,0,0,1,.79.34,1.13,1.13,0,0,1,.33.8,1.14,1.14,0,0,1-1.94.81,1.13,1.13,0,0,1-.33-.83,1.13,1.13,0,0,1,1.15-1.12Z"/><path class="cls-1" d="M1119.47.44V2.7h-6.12V4.81h3.89v2.3h-3.89v4.67h-2.26V.44Z"/><path class="cls-1" d="M1123.77,3.11a3.13,3.13,0,0,1,1.45.34,3.8,3.8,0,0,1,1.18.94,5,5,0,0,1,.79,1.42,5.09,5.09,0,0,1,.28,1.72,5.16,5.16,0,0,1-.28,1.74,4.82,4.82,0,0,1-.79,1.41,4,4,0,0,1-1.19.93,3.25,3.25,0,0,1-1.48.34,3.18,3.18,0,0,1-1.47-.34,3.84,3.84,0,0,1-1.19-.93,4.82,4.82,0,0,1-.79-1.41,5.09,5.09,0,0,1-.29-1.72,5.24,5.24,0,0,1,.29-1.76,4.46,4.46,0,0,1,.8-1.4,3.77,3.77,0,0,1,1.2-.94A3.29,3.29,0,0,1,1123.77,3.11Zm0,2.08a1.34,1.34,0,0,0-1.16.64,2.87,2.87,0,0,0-.44,1.68,3,3,0,0,0,.43,1.71,1.32,1.32,0,0,0,1.15.66,1.28,1.28,0,0,0,1.11-.67,3,3,0,0,0,.44-1.68,3.38,3.38,0,0,0-.12-.93,2.52,2.52,0,0,0-.33-.74,1.54,1.54,0,0,0-.48-.5A1.19,1.19,0,0,0,1123.79,5.19Z"/><path class="cls-1" d="M1132,3.28v.61a3.19,3.19,0,0,1,.88-.61,2.31,2.31,0,0,1,.89-.17,3.11,3.11,0,0,1,1.63.48l-.66,2.33a2.23,2.23,0,0,0-.58-.41,1.34,1.34,0,0,0-.58-.12,1.47,1.47,0,0,0-.93.33,1.58,1.58,0,0,0-.56.82,1.76,1.76,0,0,0-.07.4c0,.13,0,.33,0,.59v4.25h-2.16V3.28Z"/><path class="cls-1" d="M1147.77,3.28h2.09V5.44h-2.09v3a1.56,1.56,0,0,0,.26,1.06,1,1,0,0,0,.74.27,1.21,1.21,0,0,0,.52-.11,2.39,2.39,0,0,0,.57-.42l-.3,2.31a3.59,3.59,0,0,1-.75.32,3.32,3.32,0,0,1-.8.09,2.74,2.74,0,0,1-1-.16,2.37,2.37,0,0,1-.76-.44,2.08,2.08,0,0,1-.49-.68,2.18,2.18,0,0,1-.18-.89V5.44h-1.48V3.28h1.48v-2l2.16-.8Z"/><path class="cls-1" d="M1153.28.42a1.07,1.07,0,0,1,.79.35,1.09,1.09,0,0,1,.33.79,1.14,1.14,0,1,1-2.28,0,1.07,1.07,0,0,1,.33-.79A1.14,1.14,0,0,1,1153.28.42Zm-1.11,11.36V3.28h2.16v8.5Z"/><path class="cls-1" d="M1162.49,6.26a3.39,3.39,0,0,0-.84-1,1.61,1.61,0,0,0-.92-.28,1.4,1.4,0,0,0-.73.19,1.89,1.89,0,0,0-.58.52,2.52,2.52,0,0,0-.38.79,3.42,3.42,0,0,0-.13,1,3.14,3.14,0,0,0,.14,1,2.79,2.79,0,0,0,.4.79,1.88,1.88,0,0,0,.6.53,1.67,1.67,0,0,0,.76.18,1.79,1.79,0,0,0,1-.32,2.73,2.73,0,0,0,.81-.9l1.37,1.39a4,4,0,0,1-1.44,1.3,3.84,3.84,0,0,1-1.84.47,3.74,3.74,0,0,1-1.72-.43,4,4,0,0,1-1.41-1.15,3.86,3.86,0,0,1-.64-1.24,5.05,5.05,0,0,1-.21-1.53,4.51,4.51,0,0,1,1.18-3.28,4.21,4.21,0,0,1,1.29-.88,3.64,3.64,0,0,1,1.48-.33,3.58,3.58,0,0,1,1.74.45,3.75,3.75,0,0,1,1.34,1.22Z"/><path class="cls-1" d="M1168.12,6l2.16-2.76H1173l-2.26,2.84,2.26,5.66h-2.3L1169.21,8l-1.09,1.36v2.38H1166V1.24l2.16-.8Z"/><path class="cls-1" d="M1176.47,8.19a1.94,1.94,0,0,0,.46,1.3,1.4,1.4,0,0,0,1.12.51,2,2,0,0,0,1.36-.56l1.54,1.17a4.4,4.4,0,0,1-1.36,1,3.66,3.66,0,0,1-1.53.3,4.06,4.06,0,0,1-1.59-.3,3.19,3.19,0,0,1-1.19-.89,4,4,0,0,1-.76-1.39,5.89,5.89,0,0,1-.26-1.84,4.44,4.44,0,0,1,1.2-3.33,4.08,4.08,0,0,1,2.74-1.09,2.86,2.86,0,0,1,1.68.52,3.51,3.51,0,0,1,1.19,1.49,3.76,3.76,0,0,1,.34,1,6.09,6.09,0,0,1,.11,1.21v.85Zm2.78-1.71a1.45,1.45,0,0,0-.38-1,1.18,1.18,0,0,0-.92-.4,1.26,1.26,0,0,0-.93.36,2,2,0,0,0-.49,1.05Z"/><path class="cls-1" d="M1186.7,3.28h2.09V5.44h-2.09v3a1.56,1.56,0,0,0,.26,1.06,1,1,0,0,0,.74.27,1.21,1.21,0,0,0,.52-.11,2.87,2.87,0,0,0,.57-.42l-.31,2.31a3.52,3.52,0,0,1-.74.32,3.32,3.32,0,0,1-.8.09,2.74,2.74,0,0,1-1-.16,2.27,2.27,0,0,1-.76-.44,2.08,2.08,0,0,1-.49-.68,2.18,2.18,0,0,1-.18-.89V5.44h-1.48V3.28h1.48v-2l2.16-.8Z"/><path class="cls-1" d="M1196.71,5.75a5.35,5.35,0,0,0-2.6-.72c-.7,0-1,.22-1,.67a.57.57,0,0,0,.14.42,1.63,1.63,0,0,0,.59.27c.13.05.32.1.54.16l1,.28a3.84,3.84,0,0,1,1.77,1,2.16,2.16,0,0,1,.66,1.55,2.21,2.21,0,0,1-.71,1.67,2.82,2.82,0,0,1-1.14.69,5.72,5.72,0,0,1-1.64.19,6.87,6.87,0,0,1-1.88-.23,6.15,6.15,0,0,1-1.67-.74l.8-1.8a7.65,7.65,0,0,0,1.5.65,5.06,5.06,0,0,0,1.49.23,1.67,1.67,0,0,0,.88-.19.62.62,0,0,0,.31-.55.87.87,0,0,0,0-.3.49.49,0,0,0-.18-.23,1.87,1.87,0,0,0-.38-.2l-.66-.21-1.08-.33-.67-.22a2.21,2.21,0,0,1-.4-.18l-.33-.19a2.3,2.3,0,0,1-.76-.85,2.24,2.24,0,0,1-.27-1.07,2.06,2.06,0,0,1,.23-1,2.24,2.24,0,0,1,.67-.77,3.23,3.23,0,0,1,1-.49,4.72,4.72,0,0,1,1.34-.18,5.49,5.49,0,0,1,1.61.23,8.89,8.89,0,0,1,1.7.76Z"/><path class="cls-1" d="M1208.05,14.62V3.28h2.09v.48a2.41,2.41,0,0,1,.88-.48,3.46,3.46,0,0,1,1.06-.17,2.57,2.57,0,0,1,.94.18,2.84,2.84,0,0,1,.84.5,3.41,3.41,0,0,1,1,1.48,6.84,6.84,0,0,1,.31,2.26,4.82,4.82,0,0,1-1,3.33,3.14,3.14,0,0,1-1.07.79,2.86,2.86,0,0,1-1.24.3,2.48,2.48,0,0,1-.89-.15,3.58,3.58,0,0,1-.88-.51v2.53Zm2.09-5.71a1.61,1.61,0,0,0,1.36.88,1.32,1.32,0,0,0,1.13-.59,2.73,2.73,0,0,0,.42-1.6,2.91,2.91,0,0,0-.44-1.68,1.4,1.4,0,0,0-1.18-.62,1.63,1.63,0,0,0-1.29.74Z"/><path class="cls-1" d="M1219.68,11.78h-2.16V1.24l2.16-.8Z"/><path class="cls-1" d="M1224.27,8.19a1.94,1.94,0,0,0,.46,1.3,1.41,1.41,0,0,0,1.12.51,2,2,0,0,0,1.36-.56l1.55,1.17a4.55,4.55,0,0,1-1.37,1,3.65,3.65,0,0,1-1.52.3,4,4,0,0,1-1.59-.3,3.31,3.31,0,0,1-1.2-.89,4,4,0,0,1-.76-1.39,6.2,6.2,0,0,1-.26-1.84,4.44,4.44,0,0,1,1.2-3.33,4,4,0,0,1,1.25-.79,3.85,3.85,0,0,1,1.49-.3,2.89,2.89,0,0,1,1.69.52,3.67,3.67,0,0,1,1.19,1.49,4.12,4.12,0,0,1,.33,1,6.09,6.09,0,0,1,.11,1.21v.85Zm2.79-1.71a1.5,1.5,0,0,0-.39-1,1.18,1.18,0,0,0-.92-.4,1.26,1.26,0,0,0-.93.36,1.94,1.94,0,0,0-.48,1.05Z"/><path class="cls-1" d="M1236,11.78v-.39a4.36,4.36,0,0,1-2.14.56,3.1,3.1,0,0,1-1.18-.22,2.79,2.79,0,0,1-1.55-1.54A2.8,2.8,0,0,1,1230.9,9a2.91,2.91,0,0,1,.24-1.19,2.53,2.53,0,0,1,.67-.94,3,3,0,0,1,1-.6,4.09,4.09,0,0,1,1.34-.21,5.57,5.57,0,0,1,.85.06,7.09,7.09,0,0,1,1,.24V5.83a.77.77,0,0,0-.4-.63,1.89,1.89,0,0,0-1-.24,3.85,3.85,0,0,0-.94.12,8.55,8.55,0,0,0-1.24.45l-.8-1.5a6.47,6.47,0,0,1,1.53-.7,5.89,5.89,0,0,1,1.6-.22,4.12,4.12,0,0,1,1.62.29,3,3,0,0,1,1.15.92c.13.17.23.33.32.47a2.39,2.39,0,0,1,.2.49,3.33,3.33,0,0,1,.1.58c0,.21,0,.45,0,.74v5.18Zm0-3.62a7.47,7.47,0,0,0-.94-.32,2.39,2.39,0,0,0-.66-.09,1.72,1.72,0,0,0-1.05.3.94.94,0,0,0-.39.79,1,1,0,0,0,.44.84,1.7,1.7,0,0,0,1.09.35A2.57,2.57,0,0,0,1236,9.5Z"/><path class="cls-1" d="M1246.32,5.75a5.38,5.38,0,0,0-2.6-.72c-.71,0-1.06.22-1.06.67a.54.54,0,0,0,.15.42,1.56,1.56,0,0,0,.58.27l.55.16,1,.28a3.93,3.93,0,0,1,1.78,1,2.15,2.15,0,0,1,.65,1.55,2.18,2.18,0,0,1-.71,1.67,2.82,2.82,0,0,1-1.14.69,5.64,5.64,0,0,1-1.63.19,7,7,0,0,1-1.89-.23,6.09,6.09,0,0,1-1.66-.74l.8-1.8a7.31,7.31,0,0,0,1.49.65,5.07,5.07,0,0,0,1.5.23,1.65,1.65,0,0,0,.87-.19.63.63,0,0,0,.32-.55.85.85,0,0,0,0-.3.41.41,0,0,0-.17-.23,1.74,1.74,0,0,0-.39-.2l-.65-.21L1243,8.05l-.67-.22a2.35,2.35,0,0,1-.41-.18l-.32-.19a2.32,2.32,0,0,1-.77-.85,2.24,2.24,0,0,1-.27-1.07,2.07,2.07,0,0,1,.24-1,2.32,2.32,0,0,1,.66-.77,3.28,3.28,0,0,1,1-.49,4.65,4.65,0,0,1,1.33-.18,5.61,5.61,0,0,1,1.62.23,9.17,9.17,0,0,1,1.7.76Z"/><path class="cls-1" d="M1251.59,8.19a1.94,1.94,0,0,0,.46,1.3,1.4,1.4,0,0,0,1.12.51,2,2,0,0,0,1.36-.56l1.54,1.17a4.4,4.4,0,0,1-1.36,1,3.66,3.66,0,0,1-1.53.3,4.06,4.06,0,0,1-1.59-.3,3.19,3.19,0,0,1-1.19-.89,4,4,0,0,1-.76-1.39,5.89,5.89,0,0,1-.26-1.84,4.44,4.44,0,0,1,1.2-3.33,4.08,4.08,0,0,1,2.74-1.09,2.86,2.86,0,0,1,1.68.52,3.51,3.51,0,0,1,1.19,1.49,3.76,3.76,0,0,1,.34,1,6.09,6.09,0,0,1,.11,1.21v.85Zm2.78-1.71a1.45,1.45,0,0,0-.38-1,1.18,1.18,0,0,0-.92-.4,1.26,1.26,0,0,0-.93.36,2,2,0,0,0-.49,1.05Z"/><path class="cls-1" d="M1272,6.26a3.39,3.39,0,0,0-.84-1,1.61,1.61,0,0,0-.92-.28,1.4,1.4,0,0,0-.73.19,1.89,1.89,0,0,0-.58.52,2.52,2.52,0,0,0-.38.79,3.42,3.42,0,0,0-.13,1,3.14,3.14,0,0,0,.14,1,2.79,2.79,0,0,0,.4.79,1.88,1.88,0,0,0,.6.53,1.67,1.67,0,0,0,.76.18,1.79,1.79,0,0,0,1-.32,2.73,2.73,0,0,0,.81-.9l1.37,1.39a4,4,0,0,1-1.44,1.3,3.84,3.84,0,0,1-1.84.47,3.74,3.74,0,0,1-1.72-.43,4,4,0,0,1-1.41-1.15,3.86,3.86,0,0,1-.64-1.24,5.05,5.05,0,0,1-.21-1.53,4.51,4.51,0,0,1,1.18-3.28,4.21,4.21,0,0,1,1.29-.88,3.64,3.64,0,0,1,1.48-.33,3.58,3.58,0,0,1,1.74.45,3.63,3.63,0,0,1,1.33,1.22Z"/><path class="cls-1" d="M1280.09,11.78v-.39A4.33,4.33,0,0,1,1278,12a2.84,2.84,0,0,1-2.73-1.76A3,3,0,0,1,1275,9a2.9,2.9,0,0,1,.23-1.19,2.78,2.78,0,0,1,.67-.94,3.05,3.05,0,0,1,1-.6,4.05,4.05,0,0,1,1.34-.21,5.67,5.67,0,0,1,.85.06,6.67,6.67,0,0,1,1,.24V5.83a.76.76,0,0,0-.39-.63,1.93,1.93,0,0,0-1-.24,3.83,3.83,0,0,0-.93.12,8.55,8.55,0,0,0-1.24.45l-.8-1.5a6.47,6.47,0,0,1,1.53-.7,5.89,5.89,0,0,1,1.6-.22,4.06,4.06,0,0,1,1.61.29,3,3,0,0,1,1.16.92c.12.17.23.33.31.47a2,2,0,0,1,.21.49,3.33,3.33,0,0,1,.1.58c0,.21,0,.45,0,.74v5.18Zm0-3.62a6.93,6.93,0,0,0-.93-.32,2.5,2.5,0,0,0-.66-.09,1.72,1.72,0,0,0-1,.3.93.93,0,0,0-.4.79,1,1,0,0,0,.44.84,1.74,1.74,0,0,0,1.09.35,2.55,2.55,0,0,0,1.51-.53Z"/><path class="cls-1" d="M1286.91,11.78h-2.16V1.24l2.16-.8Z"/><path class="cls-1" d="M1291.79,11.78h-2.16V1.24l2.16-.8Z"/><path class="cls-1" d="M1303.59,13.09a24.9,24.9,0,0,1-1-3.54,14.62,14.62,0,0,1-.32-3,14.6,14.6,0,0,1,.32-3,24.9,24.9,0,0,1,1-3.54h1.54q-.35,1-.6,1.92c-.16.58-.3,1.13-.4,1.65s-.17,1-.22,1.51-.07,1-.07,1.46,0,1,.07,1.48.12,1,.22,1.5.24,1.07.4,1.66.37,1.22.6,1.91Z"/><path class="cls-1" d="M1315.9,11.78h-9.29a1.86,1.86,0,0,1,0-.22v-.15a4,4,0,0,1,.11-.95,7.12,7.12,0,0,1,.3-1,8.75,8.75,0,0,1,.47-1,7.09,7.09,0,0,1,2.18-2.46,8.19,8.19,0,0,1,2.12-1l.17,0,.17,0,.28-.06.49-.11a.81.81,0,0,0,.5-.31.91.91,0,0,0,.19-.59,1.06,1.06,0,0,0-.09-.42.86.86,0,0,0-.25-.34,2.23,2.23,0,0,0-.82-.38,4,4,0,0,0-1.1-.15,5.12,5.12,0,0,0-3.18,1.26l-1.53-1.65a7.94,7.94,0,0,1,2.25-1.43,6.82,6.82,0,0,1,2.5-.46,5.93,5.93,0,0,1,1.82.27,4.31,4.31,0,0,1,1.43.74,3.58,3.58,0,0,1,1,1.11,3,3,0,0,1,.34,1.4,3.32,3.32,0,0,1-1.52,2.76,3.54,3.54,0,0,1-.52.25,6,6,0,0,1-.72.21,5.65,5.65,0,0,0-2.35.92,3.55,3.55,0,0,0-1.37,1.66h6.48Z"/><path class="cls-1" d="M1321.47.44V11.78h-2.26V3.64h-1.58V1.7a3.24,3.24,0,0,0,1.1-.42,2.62,2.62,0,0,0,.75-.84Z"/><path class="cls-1" d="M1332.91,11.78h-9.28c0-.09,0-.16,0-.22v-.15a4.62,4.62,0,0,1,.11-.95,8.27,8.27,0,0,1,.78-2.08,6.16,6.16,0,0,1,.61-1,7,7,0,0,1,1.56-1.51,8.43,8.43,0,0,1,2.13-1l.17,0,.17,0,.28-.06.48-.11a.81.81,0,0,0,.51-.31.91.91,0,0,0,.19-.59,1.06,1.06,0,0,0-.09-.42,1,1,0,0,0-.25-.34,2.23,2.23,0,0,0-.82-.38,4,4,0,0,0-1.1-.15,5.08,5.08,0,0,0-3.18,1.26l-1.53-1.65a7.81,7.81,0,0,1,2.25-1.43,6.8,6.8,0,0,1,2.49-.46,5.84,5.84,0,0,1,1.82.27,4.26,4.26,0,0,1,1.44.74,3.42,3.42,0,0,1,.94,1.11,2.9,2.9,0,0,1,.34,1.4,3.15,3.15,0,0,1-.41,1.57,3.23,3.23,0,0,1-1.1,1.19,3.65,3.65,0,0,1-.53.25,5.8,5.8,0,0,1-.71.21,5.75,5.75,0,0,0-2.36.92,3.53,3.53,0,0,0-1.36,1.66h6.47Z"/><path class="cls-1" d="M1334.27,13.09c.24-.69.44-1.33.61-1.91s.29-1.14.4-1.66.17-1,.22-1.5.06-1,.06-1.48,0-1-.06-1.46-.12-1-.22-1.51-.24-1.07-.4-1.66-.37-1.22-.61-1.91h1.55a29.24,29.24,0,0,1,1,3.55,14.7,14.7,0,0,1,.33,3,14.72,14.72,0,0,1-.33,3,28.73,28.73,0,0,1-1,3.55Z"/><path class="cls-1" d="M1356.24.44V2.58a14.78,14.78,0,0,0-1.56,2.05,13.68,13.68,0,0,0-1.16,2.29,14,14,0,0,0-.73,2.42,12.86,12.86,0,0,0-.28,2.44h-2.33a14.85,14.85,0,0,1,3.11-9.08h-6.35V.44Z"/><path class="cls-1" d="M1366,2.7h-5.63l-.08,1.45.73-.21c.21,0,.41-.1.6-.13a3.64,3.64,0,0,1,.54-.07l.56,0a4.07,4.07,0,0,1,2.7.94,4.24,4.24,0,0,1,1.15,1.44,4,4,0,0,1-.1,3.74,4.37,4.37,0,0,1-1.37,1.55,4.57,4.57,0,0,1-2.62.63,9,9,0,0,1-1.18-.07,7.64,7.64,0,0,1-1.14-.22,9.13,9.13,0,0,1-1.18-.4c-.4-.16-.83-.37-1.3-.6l1-2a12.21,12.21,0,0,0,2.08.75,8.19,8.19,0,0,0,1.87.24,2,2,0,0,0,1.46-.51,1.81,1.81,0,0,0,.54-1.38,1.89,1.89,0,0,0-.5-1.35,1.76,1.76,0,0,0-1.32-.52,6.11,6.11,0,0,0-2.53.65l-2.31-1,.35-5.22H1366Z"/><path class="cls-1" d="M1368.49,2.11a5.82,5.82,0,0,1,1.9-1.4,5.12,5.12,0,0,1,5.18.48,2.76,2.76,0,0,1,1.15,2.35,2.49,2.49,0,0,1-.17,1,4.47,4.47,0,0,1-.63,1,4.23,4.23,0,0,1,1,1.3,3.4,3.4,0,0,1,.32,1.49,3.36,3.36,0,0,1-.22,1.16,2.61,2.61,0,0,1-.6,1,4.89,4.89,0,0,1-1.72,1.12,5.74,5.74,0,0,1-2.11.41,5.58,5.58,0,0,1-1.39-.18,5.7,5.7,0,0,1-1.32-.5,5.48,5.48,0,0,1-1.12-.75,3.93,3.93,0,0,1-.81-.93l1.81-1.36a3.69,3.69,0,0,0,2.89,1.43,3,3,0,0,0,.85-.12,2.87,2.87,0,0,0,.73-.32,2.34,2.34,0,0,0,.52-.46.86.86,0,0,0,.19-.53,1.18,1.18,0,0,0-.16-.61,1.66,1.66,0,0,0-.44-.51,2.14,2.14,0,0,0-.65-.35,2.19,2.19,0,0,0-.77-.13h-.43V4.44h.43a1.81,1.81,0,0,0,1-.27.85.85,0,0,0,.4-.7.57.57,0,0,0-.15-.38,1.35,1.35,0,0,0-.38-.32,2.52,2.52,0,0,0-.55-.22,2.39,2.39,0,0,0-.66-.09,3.38,3.38,0,0,0-2.4,1.13Z"/><path class="cls-1" d="M1390.53.44V11.78h-2.27V3.64h-1.58V1.7a3.16,3.16,0,0,0,1.1-.42,2.53,2.53,0,0,0,.76-.84Z"/><path class="cls-1" d="M1401.76.44V2.58a14.71,14.71,0,0,0-1.55,2.05A14.53,14.53,0,0,0,1399,6.92a14,14,0,0,0-.73,2.42,12.84,12.84,0,0,0-.27,2.44h-2.33a14.85,14.85,0,0,1,3.11-9.08h-6.36V.44Z"/><path class="cls-1" d="M1412.64,11.78h-9.28c0-.09,0-.16,0-.22v-.15a4.62,4.62,0,0,1,.11-.95,8.27,8.27,0,0,1,.78-2.08,6.16,6.16,0,0,1,.61-1,7,7,0,0,1,1.56-1.51,8.43,8.43,0,0,1,2.13-1l.17,0,.17,0,.28-.06.48-.11a.78.78,0,0,0,.5-.31.92.92,0,0,0,.2-.59,1.06,1.06,0,0,0-.09-.42A1.11,1.11,0,0,0,1410,3a2.23,2.23,0,0,0-.82-.38,4,4,0,0,0-1.1-.15,5.08,5.08,0,0,0-3.18,1.26l-1.53-1.65A7.9,7.9,0,0,1,1405.6.66a6.9,6.9,0,0,1,2.5-.46,5.84,5.84,0,0,1,1.82.27,4.26,4.26,0,0,1,1.44.74,3.42,3.42,0,0,1,.94,1.11,2.9,2.9,0,0,1,.34,1.4,3.15,3.15,0,0,1-.41,1.57,3.23,3.23,0,0,1-1.1,1.19,3.65,3.65,0,0,1-.53.25,5.8,5.8,0,0,1-.71.21,5.75,5.75,0,0,0-2.36.92,3.53,3.53,0,0,0-1.36,1.66h6.47Z"/><path class="cls-1" d="M1423.64,11.78h-9.28c0-.09,0-.16,0-.22v-.15a4.62,4.62,0,0,1,.11-.95,8.72,8.72,0,0,1,.31-1,7.39,7.39,0,0,1,.47-1,6.16,6.16,0,0,1,.61-1,6.75,6.75,0,0,1,1.56-1.51,8.43,8.43,0,0,1,2.13-1l.17,0,.17,0,.28-.06.48-.11a.78.78,0,0,0,.5-.31.92.92,0,0,0,.2-.59,1.06,1.06,0,0,0-.09-.42A1.11,1.11,0,0,0,1421,3a2.23,2.23,0,0,0-.82-.38,4,4,0,0,0-1.1-.15,5.08,5.08,0,0,0-3.18,1.26l-1.53-1.65A7.76,7.76,0,0,1,1416.6.66a6.86,6.86,0,0,1,2.5-.46,5.84,5.84,0,0,1,1.82.27,4.26,4.26,0,0,1,1.44.74,3.55,3.55,0,0,1,.94,1.11,2.9,2.9,0,0,1,.34,1.4,3.15,3.15,0,0,1-.41,1.57,3.23,3.23,0,0,1-1.1,1.19,3.65,3.65,0,0,1-.53.25,5.8,5.8,0,0,1-.71.21,5.75,5.75,0,0,0-2.36.92,3.61,3.61,0,0,0-1.37,1.66h6.48Z"/><path class="cls-1" d="M1426.28,9.5a1.1,1.1,0,0,1,.79.34,1.13,1.13,0,0,1,.33.8,1.15,1.15,0,0,1-2,.81,1.13,1.13,0,0,1-.33-.83,1.11,1.11,0,0,1,.33-.79A1.13,1.13,0,0,1,1426.28,9.5Z"/><path class="cls-1" d="M1443.87,3.86a2.2,2.2,0,0,0-.83-1,2.4,2.4,0,0,0-1.29-.35,2.31,2.31,0,0,0-1.26.31,2.4,2.4,0,0,0-.83,1,3.6,3.6,0,0,0-.34,1.05,6.43,6.43,0,0,0-.12,1.24,5.77,5.77,0,0,0,.2,1.59,3.83,3.83,0,0,0,.54,1.2,2.09,2.09,0,0,0,1.81.83,2.39,2.39,0,0,0,1.29-.34,2.23,2.23,0,0,0,.83-1l2.09.8a4.24,4.24,0,0,1-4.2,2.86,4.86,4.86,0,0,1-2-.41,4.18,4.18,0,0,1-1.53-1.17,5.47,5.47,0,0,1-1-1.86,8.26,8.26,0,0,1-.34-2.48,8.13,8.13,0,0,1,.34-2.46,5.33,5.33,0,0,1,1-1.85,4.2,4.2,0,0,1,1.53-1.18,4.86,4.86,0,0,1,2-.41,4.25,4.25,0,0,1,4.2,2.86Z"/><path class="cls-1" d="M1451.33,3.11a3.14,3.14,0,0,1,1.46.34,3.65,3.65,0,0,1,1.17.94,4.78,4.78,0,0,1,.79,1.42,5.09,5.09,0,0,1,.29,1.72,5.16,5.16,0,0,1-.29,1.74,4.6,4.6,0,0,1-.79,1.41,3.73,3.73,0,0,1-1.19.93,3.37,3.37,0,0,1-3,0,3.8,3.8,0,0,1-1.18-.93,4.4,4.4,0,0,1-.79-1.41,5.09,5.09,0,0,1-.29-1.72,5.24,5.24,0,0,1,.29-1.76,4.27,4.27,0,0,1,.8-1.4,3.77,3.77,0,0,1,1.2-.94A3.25,3.25,0,0,1,1451.33,3.11Zm0,2.08a1.33,1.33,0,0,0-1.15.64,2.88,2.88,0,0,0-.45,1.68,3,3,0,0,0,.44,1.71,1.31,1.31,0,0,0,1.14.66,1.29,1.29,0,0,0,1.12-.67,3,3,0,0,0,.43-1.68,3.38,3.38,0,0,0-.12-.93,2.51,2.51,0,0,0-.32-.74,1.67,1.67,0,0,0-.49-.5A1.13,1.13,0,0,0,1451.35,5.19Z"/><path class="cls-1" d="M1459.58,3.28v.61a3.32,3.32,0,0,1,.87-.61,2.37,2.37,0,0,1,.9-.17,3.13,3.13,0,0,1,1.63.48l-.66,2.33a2.41,2.41,0,0,0-.58-.41,1.34,1.34,0,0,0-.58-.12,1.52,1.52,0,0,0-.94.33,1.58,1.58,0,0,0-.56.82,2.57,2.57,0,0,0-.06.4,4.64,4.64,0,0,0,0,.59v4.25h-2.16V3.28Z"/><path class="cls-1" d="M1464.71,14.62V3.28h2.09v.48a2.41,2.41,0,0,1,.88-.48,3.46,3.46,0,0,1,1.06-.17,2.57,2.57,0,0,1,.94.18,2.89,2.89,0,0,1,.85.5,3.47,3.47,0,0,1,1,1.48,6.84,6.84,0,0,1,.31,2.26,4.82,4.82,0,0,1-1,3.33,3.14,3.14,0,0,1-1.07.79,2.86,2.86,0,0,1-1.24.3,2.48,2.48,0,0,1-.89-.15,3.58,3.58,0,0,1-.88-.51v2.53Zm2.09-5.71a1.61,1.61,0,0,0,1.36.88,1.31,1.31,0,0,0,1.13-.59,2.73,2.73,0,0,0,.42-1.6,2.91,2.91,0,0,0-.44-1.68,1.4,1.4,0,0,0-1.18-.62,1.63,1.63,0,0,0-1.29.74Z"/><path class="cls-1" d="M1477.61,3.11a3.14,3.14,0,0,1,1.46.34,3.65,3.65,0,0,1,1.17.94,4.57,4.57,0,0,1,.79,1.42,5.09,5.09,0,0,1,.29,1.72,5.16,5.16,0,0,1-.29,1.74,4.4,4.4,0,0,1-.79,1.41,3.73,3.73,0,0,1-1.19.93,3.37,3.37,0,0,1-3,0,3.8,3.8,0,0,1-1.18-.93,4.4,4.4,0,0,1-.79-1.41,5.09,5.09,0,0,1-.29-1.72,5.24,5.24,0,0,1,.29-1.76,4.27,4.27,0,0,1,.8-1.4,3.77,3.77,0,0,1,1.2-.94A3.25,3.25,0,0,1,1477.61,3.11Zm0,2.08a1.33,1.33,0,0,0-1.15.64,2.88,2.88,0,0,0-.45,1.68,3,3,0,0,0,.44,1.71,1.31,1.31,0,0,0,1.14.66,1.29,1.29,0,0,0,1.12-.67,3,3,0,0,0,.43-1.68,3.38,3.38,0,0,0-.12-.93,2.51,2.51,0,0,0-.32-.74,1.67,1.67,0,0,0-.49-.5A1.13,1.13,0,0,0,1477.63,5.19Z"/><path class="cls-1" d="M1485.86,3.28v.61a3.32,3.32,0,0,1,.87-.61,2.37,2.37,0,0,1,.9-.17,3.13,3.13,0,0,1,1.63.48l-.66,2.33a2.41,2.41,0,0,0-.58-.41,1.34,1.34,0,0,0-.58-.12,1.52,1.52,0,0,0-.94.33,1.58,1.58,0,0,0-.56.82,2.57,2.57,0,0,0-.06.4,4.64,4.64,0,0,0,0,.59v4.25h-2.16V3.28Z"/><path class="cls-1" d="M1495.48,11.78v-.39a4.36,4.36,0,0,1-2.14.56,3,3,0,0,1-1.17-.22,2.78,2.78,0,0,1-.94-.61,2.86,2.86,0,0,1-.62-.93,3,3,0,0,1-.23-1.16,2.91,2.91,0,0,1,.24-1.19,2.65,2.65,0,0,1,.67-.94,3,3,0,0,1,1-.6,4,4,0,0,1,1.33-.21,5.57,5.57,0,0,1,.85.06,7.09,7.09,0,0,1,1,.24V5.83a.75.75,0,0,0-.4-.63,1.86,1.86,0,0,0-1-.24,3.85,3.85,0,0,0-.94.12,9,9,0,0,0-1.24.45l-.8-1.5a6.85,6.85,0,0,1,1.53-.7,6,6,0,0,1,1.6-.22,4.08,4.08,0,0,1,1.62.29,2.89,2.89,0,0,1,1.15.92c.13.17.23.33.32.47a2.39,2.39,0,0,1,.2.49,2.6,2.6,0,0,1,.1.58c0,.21,0,.45,0,.74v5.18Zm0-3.62a8,8,0,0,0-.93-.32,2.52,2.52,0,0,0-.67-.09,1.67,1.67,0,0,0-1,.3.93.93,0,0,0-.4.79,1,1,0,0,0,.44.84A1.72,1.72,0,0,0,1494,10a2.57,2.57,0,0,0,1.51-.53Z"/><path class="cls-1" d="M1503.1,3.28h2.09V5.44h-2.09v3a1.57,1.57,0,0,0,.25,1.06,1,1,0,0,0,.75.27,1.27,1.27,0,0,0,.52-.11,2.87,2.87,0,0,0,.57-.42l-.31,2.31a3.38,3.38,0,0,1-.75.32,3.2,3.2,0,0,1-.8.09,2.69,2.69,0,0,1-1-.16,2.27,2.27,0,0,1-.76-.44,1.94,1.94,0,0,1-.49-.68,2.18,2.18,0,0,1-.18-.89V5.44h-1.48V3.28h1.48v-2l2.16-.8Z"/><path class="cls-1" d="M1509.28,8.19a2,2,0,0,0,.46,1.3,1.43,1.43,0,0,0,1.12.51,2,2,0,0,0,1.36-.56l1.55,1.17a4.32,4.32,0,0,1-1.37,1,3.58,3.58,0,0,1-1.52.3,4,4,0,0,1-1.59-.3,3.31,3.31,0,0,1-1.2-.89,3.87,3.87,0,0,1-.75-1.39,5.88,5.88,0,0,1-.27-1.84,4.44,4.44,0,0,1,1.21-3.33,3.82,3.82,0,0,1,1.24-.79,3.94,3.94,0,0,1,1.5-.3,2.86,2.86,0,0,1,1.68.52,3.51,3.51,0,0,1,1.19,1.49,4.15,4.15,0,0,1,.34,1,6.15,6.15,0,0,1,.1,1.21v.85Zm2.79-1.71a1.5,1.5,0,0,0-.38-1,1.18,1.18,0,0,0-.93-.4,1.25,1.25,0,0,0-.92.36,1.88,1.88,0,0,0-.49,1.05Z"/><path class="cls-1" d="M1530.91,3.59a4.91,4.91,0,0,0-1.27-.83,3.41,3.41,0,0,0-1.32-.26,2.55,2.55,0,0,0-1.25.27.81.81,0,0,0-.5.72c0,.38.23.64.68.76l.25.08.21,0,.31.07a4.15,4.15,0,0,0,.52.12,1.39,1.39,0,0,0,.23,0l.21,0,.33.07.58.16a6.83,6.83,0,0,1,.76.2,5.64,5.64,0,0,1,.56.21,3.63,3.63,0,0,1,.44.25,3.45,3.45,0,0,1,.38.31,3.18,3.18,0,0,1,1,2.41,3.23,3.23,0,0,1-1.39,2.7,5.16,5.16,0,0,1-1.52.76,5.94,5.94,0,0,1-1.73.26,5.61,5.61,0,0,1-2.67-.65,5.38,5.38,0,0,1-2-1.83l1.85-1.31a3.6,3.6,0,0,0,1.24,1.1,3.38,3.38,0,0,0,1.55.38,3.8,3.8,0,0,0,.92-.11,2.81,2.81,0,0,0,.75-.31,1.89,1.89,0,0,0,.5-.47,1,1,0,0,0,.18-.57.88.88,0,0,0-.43-.8l-.13-.07a1.2,1.2,0,0,0-.25-.08l-.59-.15c-.26-.06-.63-.15-1.1-.28s-1-.23-1.28-.33a8.55,8.55,0,0,1-.86-.29,3.44,3.44,0,0,1-.58-.31,4.37,4.37,0,0,1-.48-.41,2.41,2.41,0,0,1-.52-.86,3.24,3.24,0,0,1-.19-1.11,3,3,0,0,1,.29-1.36,2.89,2.89,0,0,1,.82-1.05,3.94,3.94,0,0,1,1.29-.67,5.61,5.61,0,0,1,1.69-.24,5.42,5.42,0,0,1,4.14,1.85Z"/><path class="cls-1" d="M1535.19,14.62V3.28h2.09v.48a2.41,2.41,0,0,1,.88-.48,3.46,3.46,0,0,1,1.06-.17,2.57,2.57,0,0,1,.94.18,2.71,2.71,0,0,1,.84.5,3.41,3.41,0,0,1,1,1.48,6.84,6.84,0,0,1,.31,2.26,4.82,4.82,0,0,1-1,3.33,3.14,3.14,0,0,1-1.07.79,2.86,2.86,0,0,1-1.24.3,2.48,2.48,0,0,1-.89-.15,3.58,3.58,0,0,1-.88-.51v2.53Zm2.09-5.71a1.61,1.61,0,0,0,1.36.88,1.31,1.31,0,0,0,1.13-.59,2.73,2.73,0,0,0,.42-1.6,2.91,2.91,0,0,0-.44-1.68,1.4,1.4,0,0,0-1.18-.62,1.63,1.63,0,0,0-1.29.74Z"/><path class="cls-1" d="M1548.09,3.11a3.14,3.14,0,0,1,1.46.34,3.65,3.65,0,0,1,1.17.94,4.78,4.78,0,0,1,.79,1.42,5.09,5.09,0,0,1,.29,1.72,5.16,5.16,0,0,1-.29,1.74,4.6,4.6,0,0,1-.79,1.41,3.73,3.73,0,0,1-1.19.93,3.37,3.37,0,0,1-3,0,3.8,3.8,0,0,1-1.18-.93,4.4,4.4,0,0,1-.79-1.41,5.09,5.09,0,0,1-.29-1.72,5.24,5.24,0,0,1,.29-1.76,4.27,4.27,0,0,1,.8-1.4,3.77,3.77,0,0,1,1.2-.94A3.25,3.25,0,0,1,1548.09,3.11Zm0,2.08a1.32,1.32,0,0,0-1.15.64,2.88,2.88,0,0,0-.45,1.68,3,3,0,0,0,.44,1.71,1.31,1.31,0,0,0,1.14.66,1.29,1.29,0,0,0,1.12-.67,3,3,0,0,0,.43-1.68,3.38,3.38,0,0,0-.12-.93,2.8,2.8,0,0,0-.32-.74,1.67,1.67,0,0,0-.49-.5A1.13,1.13,0,0,0,1548.11,5.19Z"/><path class="cls-1" d="M1556.34,3.69a5,5,0,0,1,1.07-.45,3.56,3.56,0,0,1,1-.13,3.17,3.17,0,0,1,1.6.43,2.8,2.8,0,0,1,1.09,1.15,2.56,2.56,0,0,1,.16.4,3.83,3.83,0,0,1,.1.45,3.58,3.58,0,0,1,.05.61c0,.24,0,.54,0,.91v4.72h-2.16v-5a1.57,1.57,0,0,0-.37-1.11,1.39,1.39,0,0,0-1.07-.4,1.43,1.43,0,0,0-1.08.4,1.47,1.47,0,0,0-.4,1.1v5h-2.16V3.28h2.16Z"/><path class="cls-1" d="M1569.58,5.75A5.35,5.35,0,0,0,1567,5c-.7,0-1,.22-1,.67a.53.53,0,0,0,.14.42,1.63,1.63,0,0,0,.59.27,5.52,5.52,0,0,0,.54.16l1,.28a3.84,3.84,0,0,1,1.77,1,2.16,2.16,0,0,1,.66,1.55,2.19,2.19,0,0,1-.72,1.67,2.86,2.86,0,0,1-1.13.69,5.72,5.72,0,0,1-1.64.19,6.87,6.87,0,0,1-1.88-.23,6,6,0,0,1-1.67-.74l.8-1.8a7.4,7.4,0,0,0,1.5.65,5.06,5.06,0,0,0,1.49.23,1.67,1.67,0,0,0,.88-.19.62.62,0,0,0,.31-.55.87.87,0,0,0,0-.3.49.49,0,0,0-.18-.23,1.87,1.87,0,0,0-.38-.2l-.66-.21-1.08-.33-.67-.22a2.75,2.75,0,0,1-.41-.18l-.32-.19a2.3,2.3,0,0,1-.76-.85,2.25,2.25,0,0,1-.28-1.07,2.07,2.07,0,0,1,.24-1,2.24,2.24,0,0,1,.67-.77,3.23,3.23,0,0,1,1-.49,4.72,4.72,0,0,1,1.34-.18,5.49,5.49,0,0,1,1.61.23,8.89,8.89,0,0,1,1.7.76Z"/><path class="cls-1" d="M1576.42,3.11a3.13,3.13,0,0,1,1.45.34,3.65,3.65,0,0,1,1.17.94,4.57,4.57,0,0,1,.79,1.42,5.09,5.09,0,0,1,.29,1.72,5.16,5.16,0,0,1-.29,1.74,4.4,4.4,0,0,1-.79,1.41,3.73,3.73,0,0,1-1.19.93,3.37,3.37,0,0,1-2.95,0,3.8,3.8,0,0,1-1.18-.93,4.6,4.6,0,0,1-.79-1.41,5.09,5.09,0,0,1-.29-1.72,5.24,5.24,0,0,1,.29-1.76,4.27,4.27,0,0,1,.8-1.4,3.77,3.77,0,0,1,1.2-.94A3.26,3.26,0,0,1,1576.42,3.11Zm0,2.08a1.33,1.33,0,0,0-1.15.64,2.88,2.88,0,0,0-.45,1.68,3,3,0,0,0,.44,1.71,1.32,1.32,0,0,0,1.15.66,1.28,1.28,0,0,0,1.11-.67,3,3,0,0,0,.43-1.68,3.38,3.38,0,0,0-.12-.93,2.51,2.51,0,0,0-.32-.74,1.77,1.77,0,0,0-.48-.5A1.19,1.19,0,0,0,1576.43,5.19Z"/><path class="cls-1" d="M1584.66,3.28v.61a3.19,3.19,0,0,1,.88-.61,2.28,2.28,0,0,1,.89-.17,3.13,3.13,0,0,1,1.63.48l-.66,2.33a2.41,2.41,0,0,0-.58-.41,1.34,1.34,0,0,0-.58-.12,1.47,1.47,0,0,0-.93.33,1.54,1.54,0,0,0-.57.82,2.57,2.57,0,0,0-.06.4c0,.13,0,.33,0,.59v4.25h-2.16V3.28Z"/></g></g></g></svg>