<svg xmlns="http://www.w3.org/2000/svg" viewBox="0 0 1532.81 284.53"><defs><style>.cls-1{fill:#fff;}</style></defs><g id="Layer_2" data-name="Layer 2"><g id="years"><g id="yearfit"><path id="S" class="cls-1" d="M1484.55,81.3Q1470,67.76,1456,61.4A70.92,70.92,0,0,0,1426.33,55q-17.24,0-28.34,6.57t-11.11,17.24q0,14,15.32,18.47c2.3.83,4.15,1.44,5.55,1.85s3,.82,4.79,1.23,4.09,1,6.9,1.85,6.76,1.78,11.87,2.88q3.06.82,5,1.23l4.79,1q2.87.61,7.47,1.85t13,3.69q10,2.48,17.24,4.93a104.09,104.09,0,0,1,12.64,5.13,66,66,0,0,1,9.76,5.95,88.31,88.31,0,0,1,8.62,7.39q23,23.4,23,58.3,0,40.23-31.41,65.27a109.46,109.46,0,0,1-34.08,18.27,123.3,123.3,0,0,1-39.07,6.36,118.93,118.93,0,0,1-60.14-15.8,124.3,124.3,0,0,1-44.81-44.14L1365.05,193q11.49,17.25,28,26.48a70.17,70.17,0,0,0,34.85,9.24,76.81,76.81,0,0,0,20.69-2.67,57.35,57.35,0,0,0,16.85-7.59,38.91,38.91,0,0,0,11.3-11.29,25.27,25.27,0,0,0,4-13.75q0-12.72-9.58-19.3c-1-.55-2-1.09-2.87-1.64a27.6,27.6,0,0,0-5.74-2.05q-4.41-1.24-13.22-3.49t-24.89-6.78q-17.62-4.51-28.92-8a172.05,172.05,0,0,1-19.15-7,65.51,65.51,0,0,1-13.22-7.59,87.36,87.36,0,0,1-10.72-9.86q-7.28-7.78-11.68-20.73a82.71,82.71,0,0,1-4.41-26.89,80.43,80.43,0,0,1,6.52-32.84A70.68,70.68,0,0,1,1361.41,22a85.66,85.66,0,0,1,29.11-16.22q17-5.74,38.11-5.75a116.81,116.81,0,0,1,51.13,11.29q23.57,11.29,41.94,33.46Z"/><path id="R" class="cls-1" d="M1135.14,0q12.28,0,21,.64A96.4,96.4,0,0,1,1171.8,3a56.43,56.43,0,0,1,12.72,4.66,119.89,119.89,0,0,1,12.5,7.63,88.94,88.94,0,0,1,28,31.15q10.59,19.29,10.59,39.21a84.24,84.24,0,0,1-7.2,33.06q-7.22,16.95-18.65,28a59.3,59.3,0,0,1-8.48,7q-4.66,3.18-13.56,9.11l50.46,121.68-67,.09-49-107.53h-57.81V284.49h-61.19V0Zm5.51,116.14q14,0,21.19-3.39a26.87,26.87,0,0,0,12.08-10.18,27.39,27.39,0,0,0,4.88-15.68,29.59,29.59,0,0,0-5.09-16.32A26.66,26.66,0,0,0,1161,59.76a39.35,39.35,0,0,0-10.59-2.54,110.48,110.48,0,0,0-13.57-.85h-72.48v59.77Z"/><path id="A" class="cls-1" d="M809.53.05,923.45,284.49H861.11l-25.66-62-101-.33-26,62H646.08L760.53.05Zm15,167.11L791.26,86.92,758,167.16Z"/><path id="E" class="cls-1" d="M559.75.31V56.92H420v47.25h89v57.46H420v66H567.75v56.61H363.39V.31Z"/><path id="Y" class="cls-1" d="M69.51.05l74.2,109.17L217.49.05H287L171.86,167.64V284.49H115.14V167.64L0,.05Z"/></g></g></g></svg>